%
M48
M72
T01C0.0236
T02C0.0280
T03C0.0320
T04C0.0400
%
T01
X10815Y8103
T02
X3665Y4603
X2965Y4603
T03
X1315Y1603
X2815Y1603
X3815Y1603
X1315Y3603
X5815Y5103
X7815Y3603
X8815Y3603
X9815Y3603
X10815Y3603
X11815Y3603
X12815Y3603
X13815Y3603
X14815Y3603
X16815Y3603
X17815Y3603
X18815Y3603
X19815Y3603
X20815Y3603
X21815Y3603
X22815Y3603
X23815Y3603
X23815Y6603
X22815Y6603
X21815Y6603
X20815Y6603
X19815Y6603
X18815Y6603
X17815Y6603
X16815Y6603
X14815Y6603
X13815Y6603
X12815Y6603
X11815Y6603
X10815Y6603
X9815Y6603
X8815Y6603
X7815Y6603
X5815Y7103
T04
X9815Y8603
X10815Y8603
X12815Y8603
X13815Y8603
X14815Y8603
X18815Y8603
X19815Y8603
X21815Y8603
X22815Y8603
X23815Y8603
X21815Y1603
X20815Y1603
X18815Y1603
X17815Y1603
X16815Y1603
X12815Y1603
X11815Y1603
X9815Y1603
X8815Y1603
X7815Y1603
X6815Y9103
X5815Y9103
X4815Y9103
M30
