G75*
G70*
%OFA0B0*%
%FSLAX24Y24*%
%IPPOS*%
%LPD*%
%AMOC8*
5,1,8,0,0,1.08239X$1,22.5*
%
%ADD10C,0.0520*%
%ADD11C,0.0600*%
%ADD12OC8,0.0520*%
%ADD13OC8,0.0480*%
%ADD14C,0.0480*%
%ADD15C,0.0100*%
%ADD16R,0.0396X0.0396*%
D10*
X007815Y003343D02*
X007815Y003863D01*
X008815Y003863D02*
X008815Y003343D01*
X009815Y003343D02*
X009815Y003863D01*
X010815Y003863D02*
X010815Y003343D01*
X011815Y003343D02*
X011815Y003863D01*
X012815Y003863D02*
X012815Y003343D01*
X013815Y003343D02*
X013815Y003863D01*
X014815Y003863D02*
X014815Y003343D01*
X016815Y003343D02*
X016815Y003863D01*
X017815Y003863D02*
X017815Y003343D01*
X018815Y003343D02*
X018815Y003863D01*
X019815Y003863D02*
X019815Y003343D01*
X020815Y003343D02*
X020815Y003863D01*
X021815Y003863D02*
X021815Y003343D01*
X022815Y003343D02*
X022815Y003863D01*
X023815Y003863D02*
X023815Y003343D01*
X023815Y006343D02*
X023815Y006863D01*
X022815Y006863D02*
X022815Y006343D01*
X021815Y006343D02*
X021815Y006863D01*
X020815Y006863D02*
X020815Y006343D01*
X019815Y006343D02*
X019815Y006863D01*
X018815Y006863D02*
X018815Y006343D01*
X017815Y006343D02*
X017815Y006863D01*
X016815Y006863D02*
X016815Y006343D01*
X014815Y006343D02*
X014815Y006863D01*
X013815Y006863D02*
X013815Y006343D01*
X012815Y006343D02*
X012815Y006863D01*
X011815Y006863D02*
X011815Y006343D01*
X010815Y006343D02*
X010815Y006863D01*
X009815Y006863D02*
X009815Y006343D01*
X008815Y006343D02*
X008815Y006863D01*
X007815Y006863D02*
X007815Y006343D01*
D11*
X009815Y008303D02*
X009815Y008903D01*
X010815Y008903D02*
X010815Y008303D01*
X012815Y008303D02*
X012815Y008903D01*
X013815Y008903D02*
X013815Y008303D01*
X014815Y008303D02*
X014815Y008903D01*
X018815Y008903D02*
X018815Y008303D01*
X019815Y008303D02*
X019815Y008903D01*
X021815Y008903D02*
X021815Y008303D01*
X022815Y008303D02*
X022815Y008903D01*
X023815Y008903D02*
X023815Y008303D01*
X021815Y001903D02*
X021815Y001303D01*
X020815Y001303D02*
X020815Y001903D01*
X018815Y001903D02*
X018815Y001303D01*
X017815Y001303D02*
X017815Y001903D01*
X016815Y001903D02*
X016815Y001303D01*
X012815Y001303D02*
X012815Y001903D01*
X011815Y001903D02*
X011815Y001303D01*
X009815Y001303D02*
X009815Y001903D01*
X008815Y001903D02*
X008815Y001303D01*
X007815Y001303D02*
X007815Y001903D01*
X006815Y008803D02*
X006815Y009403D01*
X005815Y009403D02*
X005815Y008803D01*
X004815Y008803D02*
X004815Y009403D01*
D12*
X001315Y001603D03*
X002815Y001603D03*
X003815Y001603D03*
X001315Y003603D03*
X005815Y005103D03*
X005815Y007103D03*
D13*
X002965Y004603D03*
D14*
X003665Y004603D03*
D15*
X005815Y004603D01*
X005815Y005103D01*
X005315Y005603D02*
X007315Y006603D01*
X007815Y006603D01*
X008815Y005103D01*
X014815Y005103D01*
X016315Y006603D01*
X016815Y006603D01*
X017815Y006603D02*
X017815Y009103D01*
X018315Y009603D01*
X022315Y009603D01*
X022815Y009103D01*
X022815Y008603D01*
X023815Y008603D02*
X023815Y006603D01*
X021815Y006603D02*
X021815Y007103D01*
X021315Y007603D01*
X020315Y007603D01*
X019815Y008103D01*
X019815Y008603D01*
X014815Y008603D02*
X014815Y006603D01*
X012815Y006603D02*
X012815Y007103D01*
X012315Y007603D01*
X011315Y007603D01*
X010815Y008103D01*
X010815Y008603D01*
X010815Y006603D02*
X008315Y009103D01*
X006815Y009103D01*
X005315Y005603D02*
X003315Y005603D01*
X002965Y005253D01*
X002965Y004603D01*
X009815Y001603D02*
X010315Y001103D01*
X010815Y001103D01*
X011315Y000603D01*
X013315Y000603D01*
X013815Y001103D01*
X013815Y003603D01*
X014815Y003603D02*
X015815Y004603D01*
X016315Y004603D01*
X016815Y005103D01*
X023315Y005103D01*
X023815Y004603D01*
X023815Y003603D01*
X021815Y003603D02*
X021815Y001603D01*
D16*
X010815Y008103D03*
M02*
