%
M48
M72
T01C0.0236
T02C0.0276
T03C0.0280
T04C0.0320
T05C0.0400
%
T01
X3809Y5102
T02
X9309Y5602
X9309Y4602
X9309Y3602
X9309Y2602
X12309Y2602
X12309Y3602
X12309Y4602
X12309Y5602
X12309Y6602
X12309Y7602
X12309Y8602
X15309Y8602
X15309Y7602
X15309Y6602
X15309Y5602
X15309Y4602
X15309Y3602
X15309Y2602
X18309Y2602
X18309Y3602
X18309Y4602
X18309Y5602
X18309Y6602
X18309Y7602
X18309Y8602
X9309Y8602
X9309Y7602
X9309Y6602
T03
X4659Y5102
X3959Y5102
T04
X2809Y1602
X3809Y1602
X6309Y2102
X6309Y3102
X6309Y4102
X6309Y5102
X6309Y6102
X6309Y7102
X6309Y8102
X6309Y9102
X4309Y8602
X2309Y8602
X2309Y6602
X4309Y6602
T05
X3809Y10102
X2809Y10102
X1809Y10102
X20809Y9102
X20809Y8102
X20809Y7102
X20809Y6102
X20809Y5102
X20809Y4102
X20809Y3102
X20809Y2102
M30
