G75*
G70*
%OFA0B0*%
%FSLAX24Y24*%
%IPPOS*%
%LPD*%
%AMOC8*
5,1,8,0,0,1.08239X$1,22.5*
%
%ADD10C,0.0600*%
%ADD11C,0.0680*%
%ADD12C,0.0556*%
%ADD13OC8,0.0600*%
%ADD14OC8,0.0560*%
%ADD15C,0.0560*%
%ADD16R,0.0476X0.0476*%
D10*
X006049Y002102D02*
X006569Y002102D01*
X006569Y003102D02*
X006049Y003102D01*
X006049Y004102D02*
X006569Y004102D01*
X006569Y005102D02*
X006049Y005102D01*
X006049Y006102D02*
X006569Y006102D01*
X006569Y007102D02*
X006049Y007102D01*
X006049Y008102D02*
X006569Y008102D01*
X006569Y009102D02*
X006049Y009102D01*
D11*
X003809Y009802D02*
X003809Y010402D01*
X002809Y010402D02*
X002809Y009802D01*
X001809Y009802D02*
X001809Y010402D01*
X020509Y009102D02*
X021109Y009102D01*
X021109Y008102D02*
X020509Y008102D01*
X020509Y007102D02*
X021109Y007102D01*
X021109Y006102D02*
X020509Y006102D01*
X020509Y005102D02*
X021109Y005102D01*
X021109Y004102D02*
X020509Y004102D01*
X020509Y003102D02*
X021109Y003102D01*
X021109Y002102D02*
X020509Y002102D01*
D12*
X018546Y002602D02*
X018071Y002602D01*
X018071Y003602D02*
X018546Y003602D01*
X018546Y004602D02*
X018071Y004602D01*
X018071Y005602D02*
X018546Y005602D01*
X018546Y006602D02*
X018071Y006602D01*
X018071Y007602D02*
X018546Y007602D01*
X018546Y008602D02*
X018071Y008602D01*
X015546Y008602D02*
X015071Y008602D01*
X015071Y007602D02*
X015546Y007602D01*
X015546Y006602D02*
X015071Y006602D01*
X015071Y005602D02*
X015546Y005602D01*
X015546Y004602D02*
X015071Y004602D01*
X015071Y003602D02*
X015546Y003602D01*
X015546Y002602D02*
X015071Y002602D01*
X012546Y002602D02*
X012071Y002602D01*
X012071Y003602D02*
X012546Y003602D01*
X012546Y004602D02*
X012071Y004602D01*
X012071Y005602D02*
X012546Y005602D01*
X012546Y006602D02*
X012071Y006602D01*
X012071Y007602D02*
X012546Y007602D01*
X012546Y008602D02*
X012071Y008602D01*
X009546Y008602D02*
X009071Y008602D01*
X009071Y007602D02*
X009546Y007602D01*
X009546Y006602D02*
X009071Y006602D01*
X009071Y005602D02*
X009546Y005602D01*
X009546Y004602D02*
X009071Y004602D01*
X009071Y003602D02*
X009546Y003602D01*
X009546Y002602D02*
X009071Y002602D01*
D13*
X002809Y001602D03*
X003809Y001602D03*
X004309Y006602D03*
X002309Y006602D03*
X002309Y008602D03*
X004309Y008602D03*
D14*
X003959Y005102D03*
D15*
X004659Y005102D03*
D16*
X003809Y005102D03*
M02*
