G75*
G70*
%OFA0B0*%
%FSLAX24Y24*%
%IPPOS*%
%LPD*%
%AMOC8*
5,1,8,0,0,1.08239X$1,22.5*
%
%ADD10C,0.0060*%
%ADD11C,0.0050*%
%ADD12C,0.0030*%
%ADD13C,0.0080*%
%ADD14C,0.0100*%
%ADD15C,0.0040*%
D10*
X002309Y001602D02*
X002311Y001665D01*
X002317Y001727D01*
X002327Y001789D01*
X002340Y001851D01*
X002358Y001911D01*
X002379Y001970D01*
X002404Y002028D01*
X002433Y002084D01*
X002465Y002138D01*
X002500Y002190D01*
X002538Y002239D01*
X002580Y002287D01*
X002624Y002331D01*
X002672Y002373D01*
X002721Y002411D01*
X002773Y002446D01*
X002827Y002478D01*
X002883Y002507D01*
X002941Y002532D01*
X003000Y002553D01*
X003060Y002571D01*
X003122Y002584D01*
X003184Y002594D01*
X003246Y002600D01*
X003309Y002602D01*
X003372Y002600D01*
X003434Y002594D01*
X003496Y002584D01*
X003558Y002571D01*
X003618Y002553D01*
X003677Y002532D01*
X003735Y002507D01*
X003791Y002478D01*
X003845Y002446D01*
X003897Y002411D01*
X003946Y002373D01*
X003994Y002331D01*
X004038Y002287D01*
X004080Y002239D01*
X004118Y002190D01*
X004153Y002138D01*
X004185Y002084D01*
X004214Y002028D01*
X004239Y001970D01*
X004260Y001911D01*
X004278Y001851D01*
X004291Y001789D01*
X004301Y001727D01*
X004307Y001665D01*
X004309Y001602D01*
X004307Y001539D01*
X004301Y001477D01*
X004291Y001415D01*
X004278Y001353D01*
X004260Y001293D01*
X004239Y001234D01*
X004214Y001176D01*
X004185Y001120D01*
X004153Y001066D01*
X004118Y001014D01*
X004080Y000965D01*
X004038Y000917D01*
X003994Y000873D01*
X003946Y000831D01*
X003897Y000793D01*
X003845Y000758D01*
X003791Y000726D01*
X003735Y000697D01*
X003677Y000672D01*
X003618Y000651D01*
X003558Y000633D01*
X003496Y000620D01*
X003434Y000610D01*
X003372Y000604D01*
X003309Y000602D01*
X003246Y000604D01*
X003184Y000610D01*
X003122Y000620D01*
X003060Y000633D01*
X003000Y000651D01*
X002941Y000672D01*
X002883Y000697D01*
X002827Y000726D01*
X002773Y000758D01*
X002721Y000793D01*
X002672Y000831D01*
X002624Y000873D01*
X002580Y000917D01*
X002538Y000965D01*
X002500Y001014D01*
X002465Y001066D01*
X002433Y001120D01*
X002404Y001176D01*
X002379Y001234D01*
X002358Y001293D01*
X002340Y001353D01*
X002327Y001415D01*
X002317Y001477D01*
X002311Y001539D01*
X002309Y001602D01*
X005809Y001602D02*
X005809Y002502D01*
X005909Y002602D01*
X005809Y002702D01*
X005809Y003502D01*
X005909Y003602D01*
X005809Y003702D01*
X005809Y004502D01*
X005909Y004602D01*
X005809Y004702D01*
X005809Y005502D01*
X005909Y005602D01*
X005809Y005702D01*
X005809Y006502D01*
X005909Y006602D01*
X005809Y006702D01*
X005809Y007502D01*
X005909Y007602D01*
X005809Y007702D01*
X005809Y008502D01*
X005909Y008602D01*
X005809Y008702D01*
X005809Y009602D01*
X006809Y009602D01*
X006809Y008702D01*
X006709Y008602D01*
X006809Y008502D01*
X006809Y007702D01*
X006709Y007602D01*
X006809Y007502D01*
X006809Y006702D01*
X006709Y006602D01*
X006809Y006502D01*
X006809Y005702D01*
X006709Y005602D01*
X006809Y005502D01*
X006809Y004702D01*
X006709Y004602D01*
X006809Y004502D01*
X006809Y003702D01*
X006709Y003602D01*
X006809Y003502D01*
X006809Y002702D01*
X006709Y002602D01*
X006809Y002502D01*
X006809Y001602D01*
X005809Y001602D01*
X004609Y004452D02*
X004609Y004652D01*
X004709Y004552D02*
X004509Y004552D01*
X003509Y005102D02*
X003511Y005158D01*
X003517Y005215D01*
X003527Y005270D01*
X003541Y005325D01*
X003558Y005379D01*
X003580Y005431D01*
X003605Y005481D01*
X003633Y005530D01*
X003665Y005577D01*
X003700Y005621D01*
X003738Y005663D01*
X003779Y005702D01*
X003823Y005737D01*
X003869Y005770D01*
X003917Y005799D01*
X003967Y005825D01*
X004019Y005848D01*
X004073Y005866D01*
X004127Y005881D01*
X004182Y005892D01*
X004238Y005899D01*
X004295Y005902D01*
X004351Y005901D01*
X004408Y005896D01*
X004463Y005887D01*
X004518Y005874D01*
X004572Y005857D01*
X004625Y005837D01*
X004676Y005813D01*
X004725Y005785D01*
X004772Y005754D01*
X004817Y005720D01*
X004860Y005682D01*
X004899Y005642D01*
X004936Y005599D01*
X004969Y005554D01*
X004999Y005506D01*
X005026Y005456D01*
X005049Y005405D01*
X005069Y005352D01*
X005085Y005298D01*
X005097Y005242D01*
X005105Y005187D01*
X005109Y005130D01*
X005109Y005074D01*
X005105Y005017D01*
X005097Y004962D01*
X005085Y004906D01*
X005069Y004852D01*
X005049Y004799D01*
X005026Y004748D01*
X004999Y004698D01*
X004969Y004650D01*
X004936Y004605D01*
X004899Y004562D01*
X004860Y004522D01*
X004817Y004484D01*
X004772Y004450D01*
X004725Y004419D01*
X004676Y004391D01*
X004625Y004367D01*
X004572Y004347D01*
X004518Y004330D01*
X004463Y004317D01*
X004408Y004308D01*
X004351Y004303D01*
X004295Y004302D01*
X004238Y004305D01*
X004182Y004312D01*
X004127Y004323D01*
X004073Y004338D01*
X004019Y004356D01*
X003967Y004379D01*
X003917Y004405D01*
X003869Y004434D01*
X003823Y004467D01*
X003779Y004502D01*
X003738Y004541D01*
X003700Y004583D01*
X003665Y004627D01*
X003633Y004674D01*
X003605Y004723D01*
X003580Y004773D01*
X003558Y004825D01*
X003541Y004879D01*
X003527Y004934D01*
X003517Y004989D01*
X003511Y005046D01*
X003509Y005102D01*
X003959Y007002D02*
X003959Y007102D01*
X004009Y007152D01*
X004009Y008052D01*
X003959Y008102D01*
X003959Y008202D01*
X003961Y008219D01*
X003965Y008236D01*
X003972Y008252D01*
X003982Y008266D01*
X003995Y008279D01*
X004009Y008289D01*
X004025Y008296D01*
X004042Y008300D01*
X004059Y008302D01*
X004559Y008302D02*
X004576Y008300D01*
X004593Y008296D01*
X004609Y008289D01*
X004623Y008279D01*
X004636Y008266D01*
X004646Y008252D01*
X004653Y008236D01*
X004657Y008219D01*
X004659Y008202D01*
X004659Y008102D01*
X004609Y008052D01*
X004609Y007152D01*
X004659Y007102D01*
X004659Y007002D01*
X004657Y006985D01*
X004653Y006968D01*
X004646Y006952D01*
X004636Y006938D01*
X004623Y006925D01*
X004609Y006915D01*
X004593Y006908D01*
X004576Y006904D01*
X004559Y006902D01*
X004059Y006902D02*
X004042Y006904D01*
X004025Y006908D01*
X004009Y006915D01*
X003995Y006925D01*
X003982Y006938D01*
X003972Y006952D01*
X003965Y006968D01*
X003961Y006985D01*
X003959Y007002D01*
X002659Y007002D02*
X002659Y007102D01*
X002609Y007152D01*
X002609Y008052D01*
X002659Y008102D01*
X002659Y008202D01*
X002657Y008219D01*
X002653Y008236D01*
X002646Y008252D01*
X002636Y008266D01*
X002623Y008279D01*
X002609Y008289D01*
X002593Y008296D01*
X002576Y008300D01*
X002559Y008302D01*
X002059Y008302D02*
X002042Y008300D01*
X002025Y008296D01*
X002009Y008289D01*
X001995Y008279D01*
X001982Y008266D01*
X001972Y008252D01*
X001965Y008236D01*
X001961Y008219D01*
X001959Y008202D01*
X001959Y008102D01*
X002009Y008052D01*
X002009Y007152D01*
X001959Y007102D01*
X001959Y007002D01*
X001961Y006985D01*
X001965Y006968D01*
X001972Y006952D01*
X001982Y006938D01*
X001995Y006925D01*
X002009Y006915D01*
X002025Y006908D01*
X002042Y006904D01*
X002059Y006902D01*
X002559Y006902D02*
X002576Y006904D01*
X002593Y006908D01*
X002609Y006915D01*
X002623Y006925D01*
X002636Y006938D01*
X002646Y006952D01*
X002653Y006968D01*
X002657Y006985D01*
X002659Y007002D01*
X002559Y009602D02*
X002309Y009852D01*
X002059Y009602D01*
X001559Y009602D01*
X001309Y009852D01*
X001309Y010352D01*
X001559Y010602D01*
X002059Y010602D01*
X002309Y010352D01*
X002559Y010602D01*
X003059Y010602D01*
X003309Y010352D01*
X003559Y010602D01*
X004059Y010602D01*
X004309Y010352D01*
X004309Y009852D01*
X004059Y009602D01*
X003559Y009602D01*
X003309Y009852D01*
X003059Y009602D01*
X002559Y009602D01*
X008589Y009503D02*
X008710Y009382D01*
X008952Y009382D01*
X009074Y009503D01*
X009074Y010110D01*
X009314Y009988D02*
X009435Y010110D01*
X009677Y010110D01*
X009799Y009988D01*
X010039Y009867D02*
X010281Y010110D01*
X010281Y009382D01*
X010039Y009382D02*
X010524Y009382D01*
X009799Y009503D02*
X009677Y009382D01*
X009435Y009382D01*
X009314Y009503D01*
X009435Y009746D02*
X009314Y009867D01*
X009314Y009988D01*
X009435Y009746D02*
X009677Y009746D01*
X009799Y009624D01*
X009799Y009503D01*
X009556Y009260D02*
X009556Y010231D01*
X008589Y010110D02*
X008589Y009503D01*
X020309Y009352D02*
X020309Y008852D01*
X020559Y008602D01*
X020309Y008352D01*
X020309Y007852D01*
X020559Y007602D01*
X020309Y007352D01*
X020309Y006852D01*
X020559Y006602D01*
X020309Y006352D01*
X020309Y005852D01*
X020559Y005602D01*
X020309Y005352D01*
X020309Y004852D01*
X020559Y004602D01*
X020309Y004352D01*
X020309Y003852D01*
X020559Y003602D01*
X020309Y003352D01*
X020309Y002852D01*
X020559Y002602D01*
X020309Y002352D01*
X020309Y001852D01*
X020559Y001602D01*
X021059Y001602D01*
X021309Y001852D01*
X021309Y002352D01*
X021059Y002602D01*
X021309Y002852D01*
X021309Y003352D01*
X021059Y003602D01*
X021309Y003852D01*
X021309Y004352D01*
X021059Y004602D01*
X021309Y004852D01*
X021309Y005352D01*
X021059Y005602D01*
X021309Y005852D01*
X021309Y006352D01*
X021059Y006602D01*
X021309Y006852D01*
X021309Y007352D01*
X021059Y007602D01*
X021309Y007852D01*
X021309Y008352D01*
X021059Y008602D01*
X021309Y008852D01*
X021309Y009352D01*
X021059Y009602D01*
X020559Y009602D01*
X020309Y009352D01*
X017881Y001944D02*
X017881Y000973D01*
X017760Y001094D02*
X018002Y001094D01*
X018124Y001216D01*
X018124Y001337D01*
X018002Y001458D01*
X017760Y001458D01*
X017638Y001580D01*
X017638Y001701D01*
X017760Y001822D01*
X018002Y001822D01*
X018124Y001701D01*
X018363Y001701D02*
X018485Y001822D01*
X018727Y001822D01*
X018849Y001701D01*
X018849Y001580D01*
X018363Y001094D01*
X018849Y001094D01*
X017760Y001094D02*
X017638Y001216D01*
X017399Y001216D02*
X017399Y001822D01*
X016913Y001822D02*
X016913Y001216D01*
X017035Y001094D01*
X017277Y001094D01*
X017399Y001216D01*
D11*
X000542Y000917D02*
X000242Y000917D01*
X000242Y001367D01*
X000702Y001367D02*
X000702Y000917D01*
X001003Y000917D01*
X001163Y000917D02*
X001388Y000917D01*
X001463Y000992D01*
X001463Y001292D01*
X001388Y001367D01*
X001163Y001367D01*
X001163Y000917D01*
X000852Y001142D02*
X000702Y001142D01*
X000702Y001367D02*
X001003Y001367D01*
X001623Y001217D02*
X001773Y001367D01*
X001773Y000917D01*
X001623Y000917D02*
X001923Y000917D01*
X005233Y002077D02*
X005684Y002077D01*
X005684Y001927D02*
X005684Y002227D01*
X005383Y001927D02*
X005233Y002077D01*
X005258Y003127D02*
X005333Y003127D01*
X005408Y003202D01*
X005408Y003352D01*
X005483Y003427D01*
X005558Y003427D01*
X005634Y003352D01*
X005634Y003202D01*
X005558Y003127D01*
X005258Y003127D02*
X005183Y003202D01*
X005183Y003352D01*
X005258Y003427D01*
X005183Y003587D02*
X005483Y003587D01*
X005634Y003737D01*
X005483Y003887D01*
X005183Y003887D01*
X005333Y004047D02*
X005183Y004198D01*
X005634Y004198D01*
X005634Y004348D02*
X005634Y004047D01*
X003323Y004327D02*
X003023Y004327D01*
X003323Y004627D01*
X003323Y004702D01*
X003248Y004777D01*
X003098Y004777D01*
X003023Y004702D01*
X002863Y004702D02*
X002788Y004777D01*
X002638Y004777D01*
X002563Y004702D01*
X002563Y004402D01*
X002638Y004327D01*
X002788Y004327D01*
X002863Y004402D01*
X002863Y005327D02*
X002863Y005552D01*
X002788Y005627D01*
X002563Y005627D01*
X002563Y005327D01*
X002403Y005402D02*
X002327Y005327D01*
X002177Y005327D01*
X002102Y005402D01*
X002403Y005702D01*
X002403Y005402D01*
X002102Y005402D02*
X002102Y005702D01*
X002177Y005777D01*
X002327Y005777D01*
X002403Y005702D01*
X001942Y005702D02*
X001942Y005402D01*
X001867Y005327D01*
X001717Y005327D01*
X001642Y005402D01*
X001942Y005702D01*
X001867Y005777D01*
X001717Y005777D01*
X001642Y005702D01*
X001642Y005402D01*
X001482Y005327D02*
X001182Y005327D01*
X001332Y005327D02*
X001332Y005777D01*
X001182Y005627D01*
X003023Y005552D02*
X003173Y005552D01*
X003023Y005327D02*
X003023Y005777D01*
X003323Y005777D01*
X005308Y008927D02*
X005383Y008927D01*
X005458Y009002D01*
X005458Y009152D01*
X005533Y009227D01*
X005608Y009227D01*
X005684Y009152D01*
X005684Y009002D01*
X005608Y008927D01*
X005533Y008927D01*
X005458Y009002D01*
X005308Y008927D02*
X005233Y009002D01*
X005233Y009152D01*
X005308Y009227D01*
X005383Y009227D01*
X005458Y009152D01*
X002554Y010852D02*
X002479Y010777D01*
X002329Y010777D01*
X002254Y010852D01*
X002094Y010927D02*
X002094Y011227D01*
X002254Y011152D02*
X002329Y011227D01*
X002479Y011227D01*
X002554Y011152D01*
X002554Y011077D01*
X002479Y011002D01*
X002554Y010927D01*
X002554Y010852D01*
X002479Y011002D02*
X002404Y011002D01*
X002094Y010927D02*
X001944Y010777D01*
X001794Y010927D01*
X001794Y011227D01*
X001634Y011152D02*
X001559Y011227D01*
X001409Y011227D01*
X001334Y011152D01*
X001334Y011077D01*
X001409Y011002D01*
X001559Y011002D01*
X001634Y010927D01*
X001634Y010852D01*
X001559Y010777D01*
X001409Y010777D01*
X001334Y010852D01*
X000984Y010327D02*
X000984Y009877D01*
X000834Y009877D02*
X001134Y009877D01*
X000834Y010177D02*
X000984Y010327D01*
X019683Y009016D02*
X020134Y009016D01*
X020134Y008866D02*
X020134Y009167D01*
X019833Y008866D02*
X019683Y009016D01*
X021483Y009006D02*
X021783Y009006D01*
X021934Y008856D01*
X021783Y008706D01*
X021483Y008706D01*
X021558Y008546D02*
X021483Y008471D01*
X021483Y008321D01*
X021558Y008246D01*
X021633Y008246D01*
X021708Y008321D01*
X021708Y008471D01*
X021783Y008546D01*
X021858Y008546D01*
X021934Y008471D01*
X021934Y008321D01*
X021858Y008246D01*
X021934Y009166D02*
X021633Y009467D01*
X021558Y009467D01*
X021483Y009391D01*
X021483Y009241D01*
X021558Y009166D01*
X021934Y009166D02*
X021934Y009467D01*
X021858Y002217D02*
X021783Y002217D01*
X021708Y002142D01*
X021708Y001991D01*
X021633Y001916D01*
X021558Y001916D01*
X021483Y001991D01*
X021483Y002142D01*
X021558Y002217D01*
X021633Y002217D01*
X021708Y002142D01*
X021708Y001991D02*
X021783Y001916D01*
X021858Y001916D01*
X021934Y001991D01*
X021934Y002142D01*
X021858Y002217D01*
D12*
X016944Y003404D02*
X016944Y003527D01*
X016882Y003589D01*
X016635Y003589D01*
X016573Y003527D01*
X016573Y003404D01*
X016635Y003342D01*
X016882Y003342D01*
X016944Y003404D01*
X016944Y003710D02*
X016573Y003710D01*
X016573Y003896D01*
X016635Y003957D01*
X016758Y003957D01*
X016820Y003896D01*
X016820Y003710D01*
X016758Y004079D02*
X016758Y004326D01*
X016697Y004326D02*
X016573Y004202D01*
X016697Y004079D01*
X016944Y004079D01*
X016944Y004326D02*
X016697Y004326D01*
X016573Y004447D02*
X016697Y004570D01*
X016573Y004694D01*
X016944Y004694D01*
X016944Y004815D02*
X016573Y004815D01*
X016573Y005000D01*
X016635Y005062D01*
X016758Y005062D01*
X016820Y005000D01*
X016820Y004815D01*
X016758Y005184D02*
X016758Y005430D01*
X016635Y005552D02*
X016573Y005614D01*
X016573Y005737D01*
X016635Y005799D01*
X016882Y005799D01*
X016944Y005737D01*
X016944Y005614D01*
X016882Y005552D01*
X016635Y005552D01*
X016820Y005675D02*
X016944Y005799D01*
X016882Y005920D02*
X016944Y005982D01*
X016944Y006105D01*
X016882Y006167D01*
X016573Y006167D01*
X016697Y006289D02*
X016573Y006412D01*
X016697Y006535D01*
X016944Y006535D01*
X016944Y006657D02*
X016944Y006842D01*
X016882Y006904D01*
X016635Y006904D01*
X016573Y006842D01*
X016573Y006657D01*
X016944Y006657D01*
X016758Y006535D02*
X016758Y006289D01*
X016697Y006289D02*
X016944Y006289D01*
X016882Y005920D02*
X016573Y005920D01*
X016573Y007025D02*
X016944Y007025D01*
X016944Y007272D01*
X016944Y007393D02*
X016573Y007393D01*
X016697Y007517D01*
X016573Y007640D01*
X016944Y007640D01*
X016882Y007762D02*
X016944Y007823D01*
X016944Y007947D01*
X016882Y008009D01*
X016820Y008009D01*
X016758Y007947D01*
X016758Y007885D01*
X016758Y007947D02*
X016697Y008009D01*
X016635Y008009D01*
X016573Y007947D01*
X016573Y007823D01*
X016635Y007762D01*
X016758Y008130D02*
X016758Y008377D01*
X016697Y008498D02*
X016635Y008498D01*
X016573Y008560D01*
X016573Y008684D01*
X016635Y008745D01*
X016697Y008745D01*
X016758Y008684D01*
X016758Y008560D01*
X016697Y008498D01*
X016758Y008560D02*
X016820Y008498D01*
X016882Y008498D01*
X016944Y008560D01*
X016944Y008684D01*
X016882Y008745D01*
X016820Y008745D01*
X016758Y008684D01*
X016573Y008315D02*
X016758Y008130D01*
X016573Y008315D02*
X016944Y008315D01*
X011044Y007708D02*
X011044Y007585D01*
X010982Y007523D01*
X010920Y007523D01*
X010858Y007585D01*
X010858Y007708D01*
X010920Y007770D01*
X010982Y007770D01*
X011044Y007708D01*
X010858Y007708D02*
X010797Y007770D01*
X010735Y007770D01*
X010673Y007708D01*
X010673Y007585D01*
X010735Y007523D01*
X010797Y007523D01*
X010858Y007585D01*
X010858Y007402D02*
X010858Y007155D01*
X010673Y007340D01*
X011044Y007340D01*
X010982Y007033D02*
X011044Y006972D01*
X011044Y006848D01*
X010982Y006786D01*
X011044Y006665D02*
X010673Y006665D01*
X010797Y006542D01*
X010673Y006418D01*
X011044Y006418D01*
X011044Y006297D02*
X011044Y006050D01*
X010673Y006050D01*
X010735Y005928D02*
X010673Y005867D01*
X010673Y005681D01*
X011044Y005681D01*
X011044Y005867D01*
X010982Y005928D01*
X010735Y005928D01*
X010797Y005560D02*
X011044Y005560D01*
X010858Y005560D02*
X010858Y005313D01*
X010797Y005313D02*
X010673Y005437D01*
X010797Y005560D01*
X010797Y005313D02*
X011044Y005313D01*
X010982Y005192D02*
X010673Y005192D01*
X010673Y004945D02*
X010982Y004945D01*
X011044Y005007D01*
X011044Y005130D01*
X010982Y005192D01*
X010982Y004823D02*
X010735Y004823D01*
X010673Y004762D01*
X010673Y004638D01*
X010735Y004577D01*
X010982Y004577D01*
X011044Y004638D01*
X011044Y004762D01*
X010982Y004823D01*
X011044Y004823D02*
X010920Y004700D01*
X010858Y004455D02*
X010858Y004208D01*
X010858Y004087D02*
X010920Y004025D01*
X010920Y003840D01*
X011044Y003840D02*
X010673Y003840D01*
X010673Y004025D01*
X010735Y004087D01*
X010858Y004087D01*
X010673Y003719D02*
X011044Y003719D01*
X010797Y003595D02*
X010673Y003719D01*
X010797Y003595D02*
X010673Y003472D01*
X011044Y003472D01*
X011044Y003350D02*
X010797Y003350D01*
X010673Y003227D01*
X010797Y003103D01*
X011044Y003103D01*
X010858Y003103D02*
X010858Y003350D01*
X010858Y002982D02*
X010920Y002920D01*
X010920Y002735D01*
X011044Y002735D02*
X010673Y002735D01*
X010673Y002920D01*
X010735Y002982D01*
X010858Y002982D01*
X010735Y002614D02*
X010673Y002552D01*
X010673Y002428D01*
X010735Y002367D01*
X010982Y002367D01*
X011044Y002428D01*
X011044Y002552D01*
X010982Y002614D01*
X010735Y002614D01*
X016573Y004447D02*
X016944Y004447D01*
X010982Y007033D02*
X010920Y007033D01*
X010858Y006972D01*
X010858Y006910D01*
X010858Y006972D02*
X010797Y007033D01*
X010735Y007033D01*
X010673Y006972D01*
X010673Y006848D01*
X010735Y006786D01*
D13*
X010309Y009102D02*
X010311Y009058D01*
X010317Y009015D01*
X010326Y008973D01*
X010339Y008931D01*
X010356Y008891D01*
X010376Y008852D01*
X010399Y008815D01*
X010426Y008781D01*
X010455Y008748D01*
X010488Y008719D01*
X010522Y008692D01*
X010559Y008669D01*
X010598Y008649D01*
X010638Y008632D01*
X010680Y008619D01*
X010722Y008610D01*
X010765Y008604D01*
X010809Y008602D01*
X010853Y008604D01*
X010896Y008610D01*
X010938Y008619D01*
X010980Y008632D01*
X011020Y008649D01*
X011059Y008669D01*
X011096Y008692D01*
X011130Y008719D01*
X011163Y008748D01*
X011192Y008781D01*
X011219Y008815D01*
X011242Y008852D01*
X011262Y008891D01*
X011279Y008931D01*
X011292Y008973D01*
X011301Y009015D01*
X011307Y009058D01*
X011309Y009102D01*
X013059Y009102D01*
X013059Y002102D01*
X008559Y002102D01*
X008559Y009102D01*
X010309Y009102D01*
X014559Y009102D02*
X014559Y002102D01*
X016309Y002102D01*
X016311Y002146D01*
X016317Y002189D01*
X016326Y002231D01*
X016339Y002273D01*
X016356Y002313D01*
X016376Y002352D01*
X016399Y002389D01*
X016426Y002423D01*
X016455Y002456D01*
X016488Y002485D01*
X016522Y002512D01*
X016559Y002535D01*
X016598Y002555D01*
X016638Y002572D01*
X016680Y002585D01*
X016722Y002594D01*
X016765Y002600D01*
X016809Y002602D01*
X016853Y002600D01*
X016896Y002594D01*
X016938Y002585D01*
X016980Y002572D01*
X017020Y002555D01*
X017059Y002535D01*
X017096Y002512D01*
X017130Y002485D01*
X017163Y002456D01*
X017192Y002423D01*
X017219Y002389D01*
X017242Y002352D01*
X017262Y002313D01*
X017279Y002273D01*
X017292Y002231D01*
X017301Y002189D01*
X017307Y002146D01*
X017309Y002102D01*
X019059Y002102D01*
X019059Y009102D01*
X014559Y009102D01*
X002309Y002352D02*
X002309Y000852D01*
D14*
X002352Y000798D01*
X002398Y000746D01*
X002447Y000697D01*
X002499Y000650D01*
X002553Y000607D01*
X002609Y000566D01*
X002668Y000529D01*
X002728Y000495D01*
X002791Y000465D01*
X002854Y000438D01*
X002920Y000414D01*
X002986Y000394D01*
X003054Y000378D01*
X003122Y000366D01*
X003191Y000358D01*
X003260Y000353D01*
X003330Y000352D01*
X003399Y000355D01*
X003468Y000362D01*
X003536Y000373D01*
X003604Y000387D01*
X003671Y000406D01*
X003737Y000428D01*
X003802Y000453D01*
X003865Y000482D01*
X003926Y000515D01*
X003985Y000551D01*
X004042Y000590D01*
X004098Y000632D01*
X004150Y000677D01*
X004200Y000725D01*
X004247Y000776D01*
X004292Y000830D01*
X004333Y000885D01*
X004371Y000943D01*
X004406Y001003D01*
X004438Y001065D01*
X004466Y001128D01*
X004490Y001193D01*
X004511Y001259D01*
X004528Y001327D01*
X004542Y001395D01*
X004551Y001464D01*
X004557Y001533D01*
X004559Y001602D01*
X004557Y001671D01*
X004551Y001740D01*
X004542Y001809D01*
X004528Y001877D01*
X004511Y001945D01*
X004490Y002011D01*
X004466Y002076D01*
X004438Y002139D01*
X004406Y002201D01*
X004371Y002261D01*
X004333Y002319D01*
X004292Y002374D01*
X004247Y002428D01*
X004200Y002479D01*
X004150Y002527D01*
X004098Y002572D01*
X004042Y002614D01*
X003985Y002653D01*
X003926Y002689D01*
X003865Y002722D01*
X003802Y002751D01*
X003737Y002776D01*
X003671Y002798D01*
X003604Y002817D01*
X003536Y002831D01*
X003468Y002842D01*
X003399Y002849D01*
X003330Y002852D01*
X003260Y002851D01*
X003191Y002846D01*
X003122Y002838D01*
X003054Y002826D01*
X002986Y002810D01*
X002920Y002790D01*
X002854Y002766D01*
X002791Y002739D01*
X002728Y002709D01*
X002668Y002675D01*
X002609Y002638D01*
X002553Y002597D01*
X002499Y002554D01*
X002447Y002507D01*
X002398Y002458D01*
X002352Y002406D01*
X002309Y002352D01*
D15*
X001829Y006832D02*
X001478Y006832D01*
X001478Y007007D01*
X001537Y007065D01*
X001653Y007065D01*
X001712Y007007D01*
X001712Y006832D01*
X001712Y006948D02*
X001829Y007065D01*
X001829Y007191D02*
X001829Y007424D01*
X001829Y007308D02*
X001478Y007308D01*
X001595Y007191D01*
X003418Y007501D02*
X003535Y007384D01*
X003418Y007501D02*
X003769Y007501D01*
X003769Y007384D02*
X003769Y007618D01*
X003710Y007744D02*
X003769Y007802D01*
X003769Y007919D01*
X003710Y007977D01*
X003593Y007977D01*
X003535Y007919D01*
X003535Y007860D01*
X003593Y007744D01*
X003418Y007744D01*
X003418Y007977D01*
X003418Y008103D02*
X003535Y008219D01*
X003418Y008336D01*
X003769Y008336D01*
X003769Y008103D02*
X003418Y008103D01*
X004788Y008111D02*
X004847Y008053D01*
X004788Y008111D02*
X004788Y008228D01*
X004847Y008286D01*
X004905Y008286D01*
X005139Y008053D01*
X005139Y008286D01*
X005139Y007927D02*
X005022Y007810D01*
X005022Y007869D02*
X005022Y007694D01*
X005139Y007694D02*
X004788Y007694D01*
X004788Y007869D01*
X004847Y007927D01*
X004963Y007927D01*
X005022Y007869D01*
M02*
