G75*
G70*
%OFA0B0*%
%FSLAX24Y24*%
%IPPOS*%
%LPD*%
%AMOC8*
5,1,8,0,0,1.08239X$1,22.5*
%
%ADD10C,0.0000*%
%ADD11C,0.0520*%
%ADD12C,0.0600*%
%ADD13OC8,0.0740*%
%ADD14OC8,0.0600*%
%ADD15C,0.0740*%
%ADD16C,0.0705*%
%ADD17OC8,0.0480*%
%ADD18C,0.0480*%
%ADD19C,0.0787*%
%ADD20OC8,0.0520*%
%ADD21C,0.0476*%
%ADD22C,0.0550*%
%ADD23C,0.0160*%
%ADD24OC8,0.0396*%
%ADD25C,0.0300*%
D10*
X000106Y000104D02*
X000106Y036100D01*
X044977Y036100D01*
X044977Y000104D01*
X000106Y000104D01*
X001988Y001604D02*
X001990Y001625D01*
X001996Y001645D01*
X002005Y001665D01*
X002017Y001682D01*
X002032Y001696D01*
X002050Y001708D01*
X002070Y001716D01*
X002090Y001721D01*
X002111Y001722D01*
X002132Y001719D01*
X002152Y001713D01*
X002171Y001702D01*
X002188Y001689D01*
X002201Y001673D01*
X002212Y001655D01*
X002220Y001635D01*
X002224Y001615D01*
X002224Y001593D01*
X002220Y001573D01*
X002212Y001553D01*
X002201Y001535D01*
X002188Y001519D01*
X002171Y001506D01*
X002152Y001495D01*
X002132Y001489D01*
X002111Y001486D01*
X002090Y001487D01*
X002070Y001492D01*
X002050Y001500D01*
X002032Y001512D01*
X002017Y001526D01*
X002005Y001543D01*
X001996Y001563D01*
X001990Y001583D01*
X001988Y001604D01*
X000988Y030604D02*
X000990Y030625D01*
X000996Y030645D01*
X001005Y030665D01*
X001017Y030682D01*
X001032Y030696D01*
X001050Y030708D01*
X001070Y030716D01*
X001090Y030721D01*
X001111Y030722D01*
X001132Y030719D01*
X001152Y030713D01*
X001171Y030702D01*
X001188Y030689D01*
X001201Y030673D01*
X001212Y030655D01*
X001220Y030635D01*
X001224Y030615D01*
X001224Y030593D01*
X001220Y030573D01*
X001212Y030553D01*
X001201Y030535D01*
X001188Y030519D01*
X001171Y030506D01*
X001152Y030495D01*
X001132Y030489D01*
X001111Y030486D01*
X001090Y030487D01*
X001070Y030492D01*
X001050Y030500D01*
X001032Y030512D01*
X001017Y030526D01*
X001005Y030543D01*
X000996Y030563D01*
X000990Y030583D01*
X000988Y030604D01*
X043488Y034604D02*
X043490Y034625D01*
X043496Y034645D01*
X043505Y034665D01*
X043517Y034682D01*
X043532Y034696D01*
X043550Y034708D01*
X043570Y034716D01*
X043590Y034721D01*
X043611Y034722D01*
X043632Y034719D01*
X043652Y034713D01*
X043671Y034702D01*
X043688Y034689D01*
X043701Y034673D01*
X043712Y034655D01*
X043720Y034635D01*
X043724Y034615D01*
X043724Y034593D01*
X043720Y034573D01*
X043712Y034553D01*
X043701Y034535D01*
X043688Y034519D01*
X043671Y034506D01*
X043652Y034495D01*
X043632Y034489D01*
X043611Y034486D01*
X043590Y034487D01*
X043570Y034492D01*
X043550Y034500D01*
X043532Y034512D01*
X043517Y034526D01*
X043505Y034543D01*
X043496Y034563D01*
X043490Y034583D01*
X043488Y034604D01*
X043488Y001604D02*
X043490Y001625D01*
X043496Y001645D01*
X043505Y001665D01*
X043517Y001682D01*
X043532Y001696D01*
X043550Y001708D01*
X043570Y001716D01*
X043590Y001721D01*
X043611Y001722D01*
X043632Y001719D01*
X043652Y001713D01*
X043671Y001702D01*
X043688Y001689D01*
X043701Y001673D01*
X043712Y001655D01*
X043720Y001635D01*
X043724Y001615D01*
X043724Y001593D01*
X043720Y001573D01*
X043712Y001553D01*
X043701Y001535D01*
X043688Y001519D01*
X043671Y001506D01*
X043652Y001495D01*
X043632Y001489D01*
X043611Y001486D01*
X043590Y001487D01*
X043570Y001492D01*
X043550Y001500D01*
X043532Y001512D01*
X043517Y001526D01*
X043505Y001543D01*
X043496Y001563D01*
X043490Y001583D01*
X043488Y001604D01*
D11*
X039866Y003604D02*
X039346Y003604D01*
X039346Y004604D02*
X039866Y004604D01*
X039866Y005604D02*
X039346Y005604D01*
X039346Y006604D02*
X039866Y006604D01*
X039866Y007604D02*
X039346Y007604D01*
X039346Y008604D02*
X039866Y008604D01*
X039866Y009604D02*
X039346Y009604D01*
X039346Y010604D02*
X039866Y010604D01*
X036866Y010604D02*
X036346Y010604D01*
X036346Y009604D02*
X036866Y009604D01*
X036866Y008604D02*
X036346Y008604D01*
X036346Y007604D02*
X036866Y007604D01*
X036866Y006604D02*
X036346Y006604D01*
X036346Y005604D02*
X036866Y005604D01*
X036866Y004604D02*
X036346Y004604D01*
X036346Y003604D02*
X036866Y003604D01*
X033866Y007104D02*
X033346Y007104D01*
X032366Y007104D02*
X031846Y007104D01*
X030866Y007604D02*
X030346Y007604D01*
X030346Y008604D02*
X030866Y008604D01*
X031846Y008104D02*
X032366Y008104D01*
X033346Y008104D02*
X033866Y008104D01*
X033866Y009104D02*
X033346Y009104D01*
X032366Y009104D02*
X031846Y009104D01*
X031846Y010104D02*
X032366Y010104D01*
X033346Y010104D02*
X033866Y010104D01*
X033866Y011104D02*
X033346Y011104D01*
X032366Y011104D02*
X031846Y011104D01*
X030866Y010604D02*
X030346Y010604D01*
X030346Y011604D02*
X030866Y011604D01*
X031846Y012104D02*
X032366Y012104D01*
X033346Y012104D02*
X033866Y012104D01*
X033866Y013104D02*
X033346Y013104D01*
X032366Y013104D02*
X031846Y013104D01*
X030866Y012604D02*
X030346Y012604D01*
X030346Y013604D02*
X030866Y013604D01*
X031846Y014104D02*
X032366Y014104D01*
X033346Y014104D02*
X033866Y014104D01*
X030866Y014604D02*
X030346Y014604D01*
X030346Y015604D02*
X030866Y015604D01*
X030866Y016604D02*
X030346Y016604D01*
X030346Y017604D02*
X030866Y017604D01*
X030866Y018604D02*
X030346Y018604D01*
X030346Y019604D02*
X030866Y019604D01*
X031846Y020104D02*
X032366Y020104D01*
X033346Y020104D02*
X033866Y020104D01*
X033866Y021104D02*
X033346Y021104D01*
X032366Y021104D02*
X031846Y021104D01*
X030866Y020604D02*
X030346Y020604D01*
X030346Y021604D02*
X030866Y021604D01*
X031846Y022104D02*
X032366Y022104D01*
X033346Y022104D02*
X033866Y022104D01*
X033866Y023104D02*
X033346Y023104D01*
X032366Y023104D02*
X031846Y023104D01*
X030866Y022604D02*
X030346Y022604D01*
X030346Y023604D02*
X030866Y023604D01*
X031846Y024104D02*
X032366Y024104D01*
X033346Y024104D02*
X033866Y024104D01*
X033866Y025104D02*
X033346Y025104D01*
X032366Y025104D02*
X031846Y025104D01*
X030866Y024604D02*
X030346Y024604D01*
X030346Y025604D02*
X030866Y025604D01*
X031846Y026104D02*
X032366Y026104D01*
X033346Y026104D02*
X033866Y026104D01*
X033866Y027104D02*
X033346Y027104D01*
X032366Y027104D02*
X031846Y027104D01*
X030866Y026604D02*
X030346Y026604D01*
X024866Y026604D02*
X024346Y026604D01*
X024346Y025604D02*
X024866Y025604D01*
X024866Y024604D02*
X024346Y024604D01*
X024346Y023604D02*
X024866Y023604D01*
X024866Y022604D02*
X024346Y022604D01*
X024346Y021604D02*
X024866Y021604D01*
X024866Y020604D02*
X024346Y020604D01*
X024346Y019604D02*
X024866Y019604D01*
X024866Y018604D02*
X024346Y018604D01*
X024346Y017604D02*
X024866Y017604D01*
X024866Y016604D02*
X024346Y016604D01*
X024346Y015604D02*
X024866Y015604D01*
X024866Y014604D02*
X024346Y014604D01*
X024346Y013604D02*
X024866Y013604D01*
X024866Y012604D02*
X024346Y012604D01*
X024346Y011604D02*
X024866Y011604D01*
X024866Y010604D02*
X024346Y010604D01*
X024346Y009604D02*
X024866Y009604D01*
X024866Y008604D02*
X024346Y008604D01*
X024346Y007604D02*
X024866Y007604D01*
X023366Y007104D02*
X022846Y007104D01*
X021866Y007104D02*
X021346Y007104D01*
X021346Y008104D02*
X021866Y008104D01*
X022846Y008104D02*
X023366Y008104D01*
X023366Y009104D02*
X022846Y009104D01*
X021866Y009104D02*
X021346Y009104D01*
X021346Y010104D02*
X021866Y010104D01*
X022846Y010104D02*
X023366Y010104D01*
X023366Y011104D02*
X022846Y011104D01*
X021866Y011104D02*
X021346Y011104D01*
X021346Y012104D02*
X021866Y012104D01*
X022846Y012104D02*
X023366Y012104D01*
X023366Y013104D02*
X022846Y013104D01*
X021866Y013104D02*
X021346Y013104D01*
X021346Y014104D02*
X021866Y014104D01*
X022846Y014104D02*
X023366Y014104D01*
X016866Y014104D02*
X016346Y014104D01*
X015366Y014104D02*
X014846Y014104D01*
X013866Y013604D02*
X013346Y013604D01*
X013346Y012604D02*
X013866Y012604D01*
X014846Y012104D02*
X015366Y012104D01*
X016346Y012104D02*
X016866Y012104D01*
X016866Y013104D02*
X016346Y013104D01*
X015366Y013104D02*
X014846Y013104D01*
X013866Y011604D02*
X013346Y011604D01*
X013346Y010604D02*
X013866Y010604D01*
X014846Y010104D02*
X015366Y010104D01*
X016346Y010104D02*
X016866Y010104D01*
X016866Y009104D02*
X016346Y009104D01*
X015366Y009104D02*
X014846Y009104D01*
X013866Y008604D02*
X013346Y008604D01*
X013346Y007604D02*
X013866Y007604D01*
X014846Y007104D02*
X015366Y007104D01*
X016346Y007104D02*
X016866Y007104D01*
X016866Y008104D02*
X016346Y008104D01*
X015366Y008104D02*
X014846Y008104D01*
X013866Y009604D02*
X013346Y009604D01*
X014846Y011104D02*
X015366Y011104D01*
X016346Y011104D02*
X016866Y011104D01*
X013866Y014604D02*
X013346Y014604D01*
X013346Y015604D02*
X013866Y015604D01*
X013866Y016604D02*
X013346Y016604D01*
X013346Y017604D02*
X013866Y017604D01*
X013866Y018604D02*
X013346Y018604D01*
X013346Y019604D02*
X013866Y019604D01*
X014846Y020104D02*
X015366Y020104D01*
X016346Y020104D02*
X016866Y020104D01*
X016866Y021104D02*
X016346Y021104D01*
X015366Y021104D02*
X014846Y021104D01*
X013866Y020604D02*
X013346Y020604D01*
X013346Y021604D02*
X013866Y021604D01*
X014846Y022104D02*
X015366Y022104D01*
X016346Y022104D02*
X016866Y022104D01*
X016866Y023104D02*
X016346Y023104D01*
X015366Y023104D02*
X014846Y023104D01*
X013866Y022604D02*
X013346Y022604D01*
X013346Y023604D02*
X013866Y023604D01*
X014846Y024104D02*
X015366Y024104D01*
X016346Y024104D02*
X016866Y024104D01*
X016866Y025104D02*
X016346Y025104D01*
X015366Y025104D02*
X014846Y025104D01*
X013866Y024604D02*
X013346Y024604D01*
X013346Y025604D02*
X013866Y025604D01*
X014846Y026104D02*
X015366Y026104D01*
X016346Y026104D02*
X016866Y026104D01*
X016866Y027104D02*
X016346Y027104D01*
X015366Y027104D02*
X014846Y027104D01*
X013866Y026604D02*
X013346Y026604D01*
X007866Y026604D02*
X007346Y026604D01*
X007346Y025604D02*
X007866Y025604D01*
X007866Y024604D02*
X007346Y024604D01*
X007346Y023604D02*
X007866Y023604D01*
X007866Y022604D02*
X007346Y022604D01*
X007346Y021604D02*
X007866Y021604D01*
X007866Y020604D02*
X007346Y020604D01*
X007346Y019604D02*
X007866Y019604D01*
X007866Y018604D02*
X007346Y018604D01*
X007346Y017604D02*
X007866Y017604D01*
X007866Y016604D02*
X007346Y016604D01*
X007346Y015604D02*
X007866Y015604D01*
X007866Y014604D02*
X007346Y014604D01*
X007346Y013604D02*
X007866Y013604D01*
X007866Y012604D02*
X007346Y012604D01*
X007346Y011604D02*
X007866Y011604D01*
X007866Y010604D02*
X007346Y010604D01*
X007346Y009604D02*
X007866Y009604D01*
X007866Y008604D02*
X007346Y008604D01*
X007346Y007604D02*
X007866Y007604D01*
X005866Y007104D02*
X005346Y007104D01*
X004366Y007104D02*
X003846Y007104D01*
X002866Y007104D02*
X002346Y007104D01*
X002346Y008104D02*
X002866Y008104D01*
X003846Y008104D02*
X004366Y008104D01*
X005346Y008104D02*
X005866Y008104D01*
X005866Y009104D02*
X005346Y009104D01*
X004366Y009104D02*
X003846Y009104D01*
X002866Y009104D02*
X002346Y009104D01*
X002346Y010104D02*
X002866Y010104D01*
X003846Y010104D02*
X004366Y010104D01*
X005346Y010104D02*
X005866Y010104D01*
X005866Y011104D02*
X005346Y011104D01*
X004366Y011104D02*
X003846Y011104D01*
X002866Y011104D02*
X002346Y011104D01*
X002346Y012104D02*
X002866Y012104D01*
X003846Y012104D02*
X004366Y012104D01*
X005346Y012104D02*
X005866Y012104D01*
X005866Y013104D02*
X005346Y013104D01*
X004366Y013104D02*
X003846Y013104D01*
X002866Y013104D02*
X002346Y013104D01*
X002346Y014104D02*
X002866Y014104D01*
X003846Y014104D02*
X004366Y014104D01*
X005346Y014104D02*
X005866Y014104D01*
X005866Y020104D02*
X005346Y020104D01*
X004366Y020104D02*
X003846Y020104D01*
X002866Y020104D02*
X002346Y020104D01*
X002346Y021104D02*
X002866Y021104D01*
X003846Y021104D02*
X004366Y021104D01*
X005346Y021104D02*
X005866Y021104D01*
X005866Y022104D02*
X005346Y022104D01*
X004366Y022104D02*
X003846Y022104D01*
X002866Y022104D02*
X002346Y022104D01*
X002346Y023104D02*
X002866Y023104D01*
X003846Y023104D02*
X004366Y023104D01*
X005346Y023104D02*
X005866Y023104D01*
X005866Y024104D02*
X005346Y024104D01*
X004366Y024104D02*
X003846Y024104D01*
X002866Y024104D02*
X002346Y024104D01*
X002346Y025104D02*
X002866Y025104D01*
X003846Y025104D02*
X004366Y025104D01*
X005346Y025104D02*
X005866Y025104D01*
X005866Y026104D02*
X005346Y026104D01*
X004366Y026104D02*
X003846Y026104D01*
X002866Y026104D02*
X002346Y026104D01*
X002346Y027104D02*
X002866Y027104D01*
X003846Y027104D02*
X004366Y027104D01*
X005346Y027104D02*
X005866Y027104D01*
X005606Y028844D02*
X005606Y029364D01*
X004606Y029364D02*
X004606Y028844D01*
X003606Y028844D02*
X003606Y029364D01*
X002606Y029364D02*
X002606Y028844D01*
X006606Y028844D02*
X006606Y029364D01*
X021346Y027104D02*
X021866Y027104D01*
X022846Y027104D02*
X023366Y027104D01*
X023366Y026104D02*
X022846Y026104D01*
X021866Y026104D02*
X021346Y026104D01*
X021346Y025104D02*
X021866Y025104D01*
X022846Y025104D02*
X023366Y025104D01*
X023366Y024104D02*
X022846Y024104D01*
X021866Y024104D02*
X021346Y024104D01*
X021346Y023104D02*
X021866Y023104D01*
X022846Y023104D02*
X023366Y023104D01*
X023366Y022104D02*
X022846Y022104D01*
X021866Y022104D02*
X021346Y022104D01*
X021346Y021104D02*
X021866Y021104D01*
X022846Y021104D02*
X023366Y021104D01*
X023366Y020104D02*
X022846Y020104D01*
X021866Y020104D02*
X021346Y020104D01*
X030346Y009604D02*
X030866Y009604D01*
X036346Y017604D02*
X036866Y017604D01*
X036866Y018604D02*
X036346Y018604D01*
X036346Y019604D02*
X036866Y019604D01*
X036866Y020604D02*
X036346Y020604D01*
X036346Y021604D02*
X036866Y021604D01*
X036866Y022604D02*
X036346Y022604D01*
X036346Y023604D02*
X036866Y023604D01*
X036866Y024604D02*
X036346Y024604D01*
X039346Y024604D02*
X039866Y024604D01*
X039866Y023604D02*
X039346Y023604D01*
X039346Y022604D02*
X039866Y022604D01*
X039866Y021604D02*
X039346Y021604D01*
X039346Y020604D02*
X039866Y020604D01*
X039866Y019604D02*
X039346Y019604D01*
X039346Y018604D02*
X039866Y018604D01*
X039866Y017604D02*
X039346Y017604D01*
X039106Y028344D02*
X039106Y028864D01*
X038106Y028864D02*
X038106Y028344D01*
X040106Y028344D02*
X040106Y028864D01*
X041106Y028864D02*
X041106Y028344D01*
X042106Y028344D02*
X042106Y028864D01*
D12*
X039406Y031604D02*
X038806Y031604D01*
X038806Y032604D02*
X039406Y032604D01*
X039406Y033604D02*
X038806Y033604D01*
X032406Y033604D02*
X031806Y033604D01*
X031806Y032604D02*
X032406Y032604D01*
X032406Y031604D02*
X031806Y031604D01*
X031626Y004994D02*
X031026Y004994D01*
X031026Y003214D02*
X031626Y003214D01*
X033586Y003214D02*
X034186Y003214D01*
X034186Y004994D02*
X033586Y004994D01*
X016686Y004994D02*
X016086Y004994D01*
X014126Y004994D02*
X013526Y004994D01*
X013526Y003214D02*
X014126Y003214D01*
X016086Y003214D02*
X016686Y003214D01*
D13*
X011106Y003604D03*
X010106Y003604D03*
X009106Y003604D03*
X009106Y004604D03*
X010106Y004604D03*
X011106Y004604D03*
X025606Y004604D03*
X025606Y003604D03*
X026606Y003604D03*
X027606Y003604D03*
X027606Y004604D03*
X026606Y004604D03*
D14*
X020106Y004104D03*
X019106Y004104D03*
X019106Y003104D03*
X020106Y003104D03*
X020106Y005104D03*
X019106Y005104D03*
X019106Y006104D03*
X020106Y006104D03*
D15*
X016106Y017604D03*
X016106Y018604D03*
X019106Y031104D03*
X020106Y031104D03*
X021106Y031104D03*
X021106Y033104D03*
X020106Y033104D03*
X019106Y033104D03*
X033106Y018604D03*
X033106Y017604D03*
X042106Y018604D03*
X042106Y019604D03*
X042106Y023104D03*
X042106Y024104D03*
X042106Y009604D03*
X042106Y008604D03*
X042106Y005604D03*
X042106Y004604D03*
D16*
X010091Y032752D02*
X010091Y033457D01*
X008122Y033457D02*
X008122Y032752D01*
D17*
X014456Y032104D03*
D18*
X013756Y032104D03*
D19*
X004500Y033285D02*
X003713Y033285D01*
X002217Y032498D02*
X002217Y031711D01*
X003713Y030884D02*
X004500Y030884D01*
D20*
X012606Y030604D03*
X015606Y030604D03*
X024106Y032604D03*
X025106Y032604D03*
X026606Y031604D03*
X029606Y031604D03*
X018106Y016104D03*
X015106Y016104D03*
X031606Y015604D03*
X034606Y015604D03*
D21*
X016606Y030604D03*
X016606Y032604D03*
D22*
X014956Y032604D01*
X014456Y032104D01*
X013756Y032104D02*
X013106Y032104D01*
X012606Y031604D01*
X012606Y030604D01*
X013606Y029604D02*
X010106Y029604D01*
X009106Y030604D01*
X009106Y032604D01*
X008606Y033104D01*
X008122Y033104D01*
X008106Y033089D01*
X008106Y032604D01*
X006386Y030884D01*
X006106Y030884D01*
X004106Y030884D01*
X002886Y030884D01*
X002606Y030604D01*
X002217Y032104D02*
X002106Y032104D01*
X001606Y032604D01*
X001606Y034104D01*
X002106Y034604D01*
X020606Y034604D01*
X021106Y034104D01*
X021106Y033104D01*
X020106Y033104D02*
X020106Y032604D01*
X019606Y032104D01*
X018106Y032104D01*
X017606Y031604D01*
X017606Y031104D01*
X017106Y030604D01*
X016606Y030604D01*
X015606Y030604D02*
X014606Y030604D01*
X013606Y029604D01*
X011106Y033104D02*
X010091Y033104D01*
X011106Y033104D02*
X011606Y033604D01*
X017606Y033604D01*
X018106Y033104D01*
X019106Y033104D01*
X021106Y031104D02*
X021606Y031104D01*
X022106Y031604D01*
X022106Y034104D01*
X022606Y034604D01*
X031606Y034604D01*
X032106Y034104D01*
X032606Y034604D01*
X038606Y034604D01*
X039106Y034104D01*
X039106Y033604D01*
X039106Y032604D02*
X032106Y032604D01*
X032106Y033604D02*
X032106Y034104D01*
X038106Y026604D02*
X037606Y026104D01*
X038106Y026604D02*
X041606Y026604D01*
X042106Y026104D01*
X042106Y024104D01*
X041106Y024604D02*
X041106Y023604D01*
X041606Y023104D01*
X042106Y023104D01*
X040606Y022104D02*
X040606Y021104D01*
X041106Y020604D01*
X042606Y020604D01*
X043106Y020104D01*
X043106Y019104D01*
X042606Y018604D01*
X042106Y018604D01*
X042106Y019604D02*
X039606Y019604D01*
X040606Y022104D02*
X040106Y022604D01*
X039606Y022604D01*
X041106Y024604D02*
X040106Y025604D01*
X038606Y025604D01*
X038606Y012604D02*
X042106Y012604D01*
X042606Y012104D01*
X042606Y010104D01*
X042106Y009604D01*
X041106Y009104D02*
X041606Y008604D01*
X042106Y008604D01*
X041106Y009104D02*
X041106Y010604D01*
X040606Y011604D01*
X039106Y011604D01*
X038106Y012104D02*
X038606Y012604D01*
X039606Y008604D02*
X040106Y008604D01*
X040606Y008104D01*
X040606Y007104D01*
X041106Y006604D01*
X042606Y006604D01*
X043106Y006104D01*
X043106Y005104D01*
X042606Y004604D01*
X042106Y004604D01*
X042106Y005604D02*
X039606Y005604D01*
X008122Y033104D02*
X007941Y033285D01*
X004106Y033285D01*
D23*
X004606Y029104D02*
X004106Y028604D01*
X004106Y027104D01*
X004106Y026104D01*
X004106Y025104D01*
X004106Y024104D01*
X004106Y023104D01*
X004106Y022104D01*
X004106Y021104D01*
X004106Y020104D01*
X004106Y018104D01*
X004606Y017604D01*
X004106Y017104D01*
X004106Y016104D01*
X004606Y015604D01*
X007606Y015604D01*
X007606Y014604D02*
X006106Y014604D01*
X005606Y014104D01*
X006106Y013604D02*
X007606Y013604D01*
X007606Y012604D02*
X006106Y012604D01*
X005606Y012104D01*
X006106Y011604D02*
X007606Y011604D01*
X007606Y010604D02*
X006106Y010604D01*
X005606Y010104D01*
X006106Y009604D02*
X007606Y009604D01*
X007606Y008604D02*
X006106Y008604D01*
X005606Y008104D01*
X006106Y007604D02*
X007606Y007604D01*
X006106Y007604D02*
X005606Y007104D01*
X004106Y007104D02*
X004106Y008104D01*
X004106Y009104D01*
X004106Y010104D01*
X004106Y011104D01*
X004106Y012104D01*
X004106Y013104D01*
X004106Y014104D01*
X004106Y015104D01*
X004606Y015604D01*
X006106Y013604D02*
X005606Y013104D01*
X006106Y011604D02*
X005606Y011104D01*
X006106Y009604D02*
X005606Y009104D01*
X012106Y012104D02*
X012106Y003104D01*
X011606Y002604D01*
X010606Y002604D01*
X010106Y003104D01*
X010106Y003604D01*
X009106Y003604D02*
X009106Y002604D01*
X009606Y002104D01*
X012106Y002104D01*
X012606Y002604D01*
X013106Y002104D01*
X013606Y002104D01*
X014106Y002604D01*
X014106Y003104D01*
X013826Y003214D01*
X012606Y002604D02*
X012606Y005104D01*
X013106Y005604D01*
X016106Y005604D01*
X016606Y006104D01*
X016606Y007104D01*
X015106Y007104D02*
X014606Y007104D01*
X014106Y007604D01*
X013606Y007604D01*
X014106Y008604D02*
X014606Y008104D01*
X015106Y008104D01*
X014106Y008604D02*
X013606Y008604D01*
X014106Y009604D02*
X014606Y009104D01*
X015106Y009104D01*
X015106Y010104D02*
X014606Y010104D01*
X014106Y010604D01*
X013606Y010604D01*
X013606Y011604D02*
X014106Y011604D01*
X014606Y011104D01*
X015106Y011104D01*
X015606Y011604D02*
X017106Y011604D01*
X017606Y011104D01*
X017606Y005604D01*
X019106Y004104D01*
X019106Y005104D02*
X018106Y006104D01*
X018106Y012104D01*
X017606Y012604D01*
X015606Y012604D01*
X015106Y013104D01*
X014106Y013104D01*
X013606Y013604D01*
X014106Y014104D02*
X015106Y014104D01*
X016106Y015104D01*
X018606Y015104D01*
X019106Y014604D01*
X019106Y013604D01*
X019606Y013604D02*
X019606Y001604D01*
X020606Y000604D01*
X041606Y000604D01*
X042106Y001104D01*
X042106Y002104D01*
X041606Y002604D01*
X040106Y002604D01*
X039106Y002104D02*
X039106Y003104D01*
X039606Y003604D01*
X039106Y002104D02*
X038606Y001604D01*
X029606Y001604D01*
X028606Y002604D02*
X027106Y001104D01*
X022606Y001104D01*
X022106Y001604D01*
X022106Y003104D01*
X022606Y003604D01*
X025606Y003604D01*
X025606Y004604D02*
X025606Y014604D01*
X026606Y015604D01*
X030606Y015604D01*
X031606Y015604D01*
X031106Y014604D02*
X031606Y014104D01*
X032106Y014104D01*
X031106Y013604D02*
X031606Y013104D01*
X032106Y013104D01*
X032106Y012104D02*
X031606Y012104D01*
X031106Y012604D01*
X030606Y012604D01*
X028106Y012604D01*
X027606Y012104D01*
X027606Y006604D01*
X028106Y006104D02*
X028106Y011104D01*
X028606Y011604D01*
X030606Y011604D01*
X030606Y010604D02*
X029106Y010604D01*
X028606Y010104D01*
X028606Y006604D01*
X029106Y006604D02*
X029106Y008104D01*
X029106Y006604D02*
X029606Y006104D01*
X033606Y006104D01*
X034106Y005604D02*
X034606Y006104D01*
X034606Y015604D01*
X035606Y016104D02*
X035606Y013104D01*
X036106Y012604D01*
X036106Y011104D01*
X036606Y010604D01*
X035606Y010104D02*
X039106Y010104D01*
X039606Y009604D01*
X036606Y006604D02*
X035606Y005604D01*
X035606Y002604D01*
X035106Y002104D01*
X031606Y002104D01*
X031106Y002604D01*
X028606Y002604D01*
X027606Y003604D02*
X028106Y004104D01*
X030606Y004104D01*
X031106Y004604D01*
X031326Y004994D01*
X031606Y005604D01*
X034106Y005604D01*
X033606Y007104D02*
X033606Y008104D01*
X033606Y009104D01*
X033606Y010104D01*
X033606Y011104D01*
X033606Y012104D01*
X033606Y013104D01*
X033606Y014104D01*
X031106Y013604D02*
X030606Y013604D01*
X027106Y013604D01*
X026606Y013104D01*
X026606Y006604D01*
X026606Y006104D01*
X027606Y005104D01*
X027606Y004604D01*
X026606Y004604D02*
X026106Y005104D01*
X026106Y013104D01*
X027606Y014604D01*
X030606Y014604D01*
X031106Y014604D01*
X030606Y016604D02*
X026606Y016604D01*
X025606Y015604D01*
X024606Y015604D01*
X025606Y016104D02*
X022106Y016104D01*
X022606Y016604D01*
X024606Y016604D01*
X025606Y016104D02*
X026606Y017104D01*
X026606Y018604D01*
X027106Y017604D02*
X027106Y020104D01*
X026106Y021104D01*
X026106Y025104D01*
X026606Y025604D01*
X026606Y026104D01*
X025606Y027104D01*
X023106Y027104D01*
X021606Y027104D02*
X021606Y025104D01*
X021606Y024104D01*
X021606Y023104D01*
X021606Y022104D01*
X021606Y021104D01*
X021606Y020104D01*
X020606Y019604D02*
X022606Y017604D01*
X024606Y017604D01*
X024606Y018604D02*
X023606Y018604D01*
X023106Y019104D01*
X023106Y020104D01*
X023106Y021104D02*
X024606Y019604D01*
X024606Y020604D02*
X023106Y022104D01*
X023106Y023104D02*
X024606Y021604D01*
X024606Y022604D02*
X023106Y024104D01*
X023106Y025104D02*
X024606Y023604D01*
X027106Y021104D02*
X027606Y020604D01*
X030606Y020604D01*
X030606Y021604D02*
X030106Y021604D01*
X029606Y022104D01*
X029606Y029604D01*
X029106Y030104D02*
X028606Y029604D01*
X025606Y029604D01*
X025106Y029104D01*
X019106Y029104D01*
X018606Y028604D01*
X018606Y016604D01*
X018106Y016104D01*
X016106Y016104D01*
X015606Y016604D01*
X013606Y016604D01*
X013106Y017104D02*
X013606Y017604D01*
X013106Y017104D02*
X008106Y017104D01*
X007606Y016604D01*
X007606Y017604D02*
X004606Y017604D01*
X006606Y019104D02*
X007106Y018604D01*
X007606Y018604D01*
X007606Y019604D02*
X007106Y019604D01*
X006606Y020104D01*
X006606Y020604D01*
X006106Y021104D01*
X005606Y021104D01*
X005606Y020104D02*
X006106Y020104D01*
X006606Y019604D01*
X006606Y019104D01*
X007106Y020604D02*
X007606Y020604D01*
X007106Y020604D02*
X006606Y021104D01*
X006606Y021604D01*
X006106Y022104D01*
X005606Y022104D01*
X006606Y022104D02*
X006606Y022604D01*
X006106Y023104D01*
X005606Y023104D01*
X006606Y023104D02*
X007106Y022604D01*
X007606Y022604D01*
X007606Y023604D02*
X007106Y023604D01*
X006606Y024104D01*
X006606Y024604D01*
X006106Y025104D01*
X005606Y025104D01*
X005606Y024104D02*
X006106Y024104D01*
X006606Y023604D01*
X006606Y023104D01*
X006606Y022104D02*
X007106Y021604D01*
X007606Y021604D01*
X009106Y021604D02*
X009606Y021104D01*
X013106Y021104D01*
X013606Y020604D01*
X014606Y020604D01*
X015106Y020104D01*
X015106Y021104D02*
X014606Y021104D01*
X014106Y021604D01*
X013606Y021604D01*
X010106Y021604D01*
X009606Y022104D01*
X007606Y024604D02*
X007106Y024604D01*
X006606Y025104D01*
X006606Y025604D01*
X006106Y026104D01*
X005606Y026104D01*
X006606Y026104D02*
X006606Y026604D01*
X006106Y027104D01*
X005606Y027104D01*
X006606Y026104D02*
X007106Y025604D01*
X007606Y025604D01*
X007606Y026604D02*
X008606Y027604D01*
X014606Y027604D01*
X015106Y027104D01*
X014106Y026604D02*
X014606Y026104D01*
X015106Y026104D01*
X014106Y025604D02*
X014606Y025104D01*
X015106Y025104D01*
X015106Y024104D02*
X014606Y024104D01*
X014106Y024604D01*
X013606Y024604D01*
X013606Y023604D02*
X014106Y023604D01*
X014606Y023104D01*
X015106Y023104D01*
X014106Y022604D02*
X014606Y022104D01*
X015106Y022104D01*
X014106Y022604D02*
X013606Y022604D01*
X013606Y025604D02*
X014106Y025604D01*
X014106Y026604D02*
X013606Y026604D01*
X019606Y024104D02*
X019606Y017604D01*
X019106Y017104D01*
X019106Y016604D01*
X020606Y015104D01*
X020606Y013604D01*
X021606Y013104D02*
X021606Y014104D01*
X021606Y015604D01*
X022106Y016104D01*
X021606Y013104D02*
X021606Y012104D01*
X021606Y011104D01*
X021606Y010104D01*
X021606Y009104D01*
X021606Y008104D01*
X021606Y007104D01*
X022106Y006604D01*
X022106Y004104D01*
X022606Y003604D01*
X030826Y004824D02*
X031326Y004994D01*
X031326Y003214D02*
X031106Y002604D01*
X015606Y011604D02*
X015106Y012104D01*
X014606Y012104D01*
X014106Y012604D01*
X013606Y012604D01*
X012606Y012604D01*
X012106Y012104D01*
X014106Y014104D02*
X013606Y014604D01*
X013606Y009604D02*
X014106Y009604D01*
X020606Y019604D02*
X020606Y027604D01*
X021106Y028104D01*
X026606Y028104D01*
X027106Y028604D01*
X027106Y027604D02*
X027106Y021104D01*
X027606Y021604D02*
X028606Y022604D01*
X028606Y023104D01*
X029106Y023604D01*
X030606Y024604D02*
X031606Y024604D01*
X032106Y024104D01*
X032606Y024604D01*
X036606Y024604D01*
X036606Y025604D02*
X037606Y024604D01*
X037606Y024104D01*
X037106Y023604D01*
X036606Y023604D01*
X035106Y023104D02*
X034606Y022604D01*
X032606Y022604D01*
X032106Y022104D01*
X033606Y020104D02*
X034106Y019604D01*
X035606Y019604D01*
X036606Y020604D01*
X037106Y019104D02*
X028606Y019104D01*
X027106Y017604D02*
X027606Y017104D01*
X033606Y017104D01*
X034106Y017604D01*
X034106Y018104D01*
X034606Y018604D01*
X036606Y018604D01*
X037106Y019104D02*
X038106Y018104D01*
X039106Y018104D01*
X039606Y017604D01*
X039606Y018604D02*
X040106Y018604D01*
X040606Y018104D01*
X040606Y016604D01*
X040106Y016104D01*
X038106Y016104D01*
X037606Y016604D01*
X032106Y016604D01*
X035106Y023104D02*
X039106Y023104D01*
X039606Y023604D01*
X036606Y025604D02*
X036606Y026604D01*
X036106Y027104D01*
X036106Y028604D01*
X035606Y029104D01*
X036106Y029604D02*
X036606Y030104D01*
X038606Y030104D01*
X039106Y029604D01*
X039106Y028604D01*
X037106Y031604D02*
X037606Y032104D01*
X038606Y032104D01*
X039106Y032604D01*
X037106Y031604D02*
X034106Y031604D01*
X033606Y031104D01*
X033606Y027104D01*
X029106Y030104D02*
X029106Y031104D01*
X029606Y031604D01*
X032106Y031604D01*
D24*
X029606Y029604D03*
X027106Y028604D03*
X027106Y027604D03*
X026106Y025104D03*
X029106Y023604D03*
X027606Y021604D03*
X028606Y019104D03*
X026606Y018604D03*
X032106Y016604D03*
X035606Y016104D03*
X038106Y012104D03*
X039106Y011604D03*
X035606Y010104D03*
X033606Y006104D03*
X034106Y005604D03*
X029106Y008104D03*
X028606Y006604D03*
X028106Y006104D03*
X027606Y006604D03*
X026606Y006604D03*
X029606Y001604D03*
X040106Y002604D03*
X020606Y013604D03*
X019606Y013604D03*
X019106Y013604D03*
X020606Y019604D03*
X019606Y024104D03*
X009606Y022104D03*
X009106Y021604D03*
X035606Y029104D03*
X036106Y029604D03*
X037606Y026104D03*
X038606Y025604D03*
D25*
X041106Y028604D02*
X041106Y032104D01*
X039606Y032104D01*
X039106Y032604D01*
X041606Y032604D01*
X042106Y032104D01*
X042106Y028604D01*
X039106Y022104D02*
X037106Y022104D01*
X036606Y021604D01*
X036606Y020604D01*
X039106Y022104D02*
X039606Y021604D01*
X039606Y020604D01*
X039106Y008104D02*
X037106Y008104D01*
X036606Y007604D01*
X036606Y006604D01*
X039106Y008104D02*
X039606Y007604D01*
X039606Y006604D01*
X006106Y030884D02*
X005106Y030104D01*
X004106Y030104D01*
X003606Y029604D01*
X003606Y029104D01*
X002606Y029104D02*
X002606Y030604D01*
M02*
