%
M48
M72
T01C0.0280
T02C0.0320
T03C0.0400
T04C0.0472
%
T01
X8463Y4609
X9163Y4609
T02
X7813Y5609
X6313Y4609
X5813Y5609
X4313Y4609
X3313Y5609
X1313Y5609
X1813Y8109
X2813Y8109
X6313Y8109
X7313Y8109
X10313Y6109
X12313Y6109
X11813Y8109
X10813Y8109
T03
X10313Y10609
X11313Y10609
X12313Y10609
X7813Y10609
X6813Y10609
X5813Y10609
X3313Y10609
X2313Y10609
X1313Y10609
X5743Y2109
X6813Y2109
X7883Y2109
T04
X1865Y2609
X3383Y2609
M30
