G75*
G70*
%OFA0B0*%
%FSLAX24Y24*%
%IPPOS*%
%LPD*%
%AMOC8*
5,1,8,0,0,1.08239X$1,22.5*
%
%ADD10C,0.0000*%
%ADD11C,0.0600*%
%ADD12R,0.0800X0.0800*%
%ADD13C,0.0800*%
%ADD14OC8,0.0520*%
%ADD15OC8,0.0480*%
%ADD16C,0.0480*%
%ADD17C,0.0740*%
%ADD18R,0.2126X0.2441*%
%ADD19R,0.0394X0.0630*%
%ADD20C,0.0100*%
D10*
X000313Y000109D02*
X000313Y012105D01*
X013183Y012105D01*
X013183Y000109D01*
X000313Y000109D01*
D11*
X001313Y010309D02*
X001313Y010909D01*
X002313Y010909D02*
X002313Y010309D01*
X003313Y010309D02*
X003313Y010909D01*
X005813Y010909D02*
X005813Y010309D01*
X006813Y010309D02*
X006813Y010909D01*
X007813Y010909D02*
X007813Y010309D01*
X010313Y010309D02*
X010313Y010909D01*
X011313Y010909D02*
X011313Y010309D01*
X012313Y010309D02*
X012313Y010909D01*
D12*
X003383Y002609D03*
D13*
X001865Y002609D03*
D14*
X004313Y004609D03*
X003313Y005609D03*
X001313Y005609D03*
X001813Y008109D03*
X002813Y008109D03*
X005813Y005609D03*
X006313Y004609D03*
X007813Y005609D03*
X010313Y006109D03*
X012313Y006109D03*
X011813Y008109D03*
X010813Y008109D03*
X007313Y008109D03*
X006313Y008109D03*
D15*
X009163Y004609D03*
D16*
X008463Y004609D03*
D17*
X007883Y002109D03*
X006813Y002109D03*
X005743Y002109D03*
D18*
X011313Y001624D03*
D19*
X010415Y004498D03*
X012211Y004498D03*
D20*
X011703Y004498D01*
X010813Y003609D01*
X009813Y003609D01*
X009313Y004109D01*
X008313Y004109D01*
X007813Y003609D01*
X007813Y002179D01*
X007883Y002109D01*
X007813Y002109D01*
X006313Y000609D02*
X010313Y000609D01*
X010313Y001109D01*
X011313Y002109D01*
X011313Y001624D01*
X009313Y004109D02*
X009313Y004459D01*
X009163Y004609D01*
X008463Y004609D02*
X006313Y004609D01*
X005813Y005609D02*
X005813Y007609D01*
X006313Y008109D01*
X007313Y008109D02*
X007813Y008609D01*
X007813Y010609D01*
X006813Y010609D02*
X006813Y011109D01*
X007313Y011609D01*
X008813Y011609D01*
X009813Y010609D01*
X010313Y010609D01*
X012313Y010609D02*
X012313Y008609D01*
X011813Y008109D01*
X012313Y006109D02*
X012313Y005609D01*
X011813Y005109D01*
X010813Y005109D01*
X010313Y004609D01*
X009313Y005609D01*
X007813Y005609D01*
X010313Y004609D02*
X010415Y004498D01*
X005813Y003109D02*
X005813Y002179D01*
X005743Y002109D01*
X005813Y002109D01*
X005813Y001109D01*
X006313Y000609D01*
X005813Y003109D02*
X005313Y003609D01*
X004813Y003609D01*
X004313Y004109D01*
X004313Y004609D01*
X001865Y002609D02*
X001813Y002609D01*
X000813Y003609D01*
X000813Y009609D01*
X001313Y010109D01*
X001313Y010609D01*
X001313Y011109D01*
X001813Y011609D01*
X007313Y011609D01*
X003313Y010609D02*
X003313Y008609D01*
X002813Y008109D01*
M02*
