G75*
G70*
%OFA0B0*%
%FSLAX24Y24*%
%IPPOS*%
%LPD*%
%AMOC8*
5,1,8,0,0,1.08239X$1,22.5*
%
%ADD10C,0.0050*%
%ADD11C,0.0060*%
%ADD12C,0.0080*%
%ADD13C,0.0010*%
%ADD14C,0.0040*%
%ADD15C,0.0070*%
%ADD16C,0.0100*%
%ADD17R,0.0340X0.0300*%
D10*
X009688Y003934D02*
X009988Y003934D01*
X009838Y003934D02*
X009838Y004384D01*
X009688Y004234D01*
X010148Y004309D02*
X010148Y004009D01*
X010449Y004309D01*
X010449Y004009D01*
X010374Y003934D01*
X010223Y003934D01*
X010148Y004009D01*
X010148Y004309D02*
X010223Y004384D01*
X010374Y004384D01*
X010449Y004309D01*
X010609Y004309D02*
X010684Y004384D01*
X010834Y004384D01*
X010909Y004309D01*
X010609Y004009D01*
X010684Y003934D01*
X010834Y003934D01*
X010909Y004009D01*
X010909Y004309D01*
X011069Y004234D02*
X011294Y004234D01*
X011369Y004159D01*
X011369Y003934D01*
X011529Y003934D02*
X011529Y004384D01*
X011830Y004384D01*
X011680Y004159D02*
X011529Y004159D01*
X011069Y004234D02*
X011069Y003934D01*
X010609Y004009D02*
X010609Y004309D01*
X010449Y004934D02*
X010148Y004934D01*
X010449Y005234D01*
X010449Y005309D01*
X010374Y005384D01*
X010223Y005384D01*
X010148Y005309D01*
X009988Y005309D02*
X009913Y005384D01*
X009763Y005384D01*
X009688Y005309D01*
X009688Y005009D01*
X009763Y004934D01*
X009913Y004934D01*
X009988Y005009D01*
X009769Y008344D02*
X009469Y008344D01*
X009619Y008344D02*
X009619Y008794D01*
X009469Y008644D01*
X009309Y008719D02*
X009234Y008794D01*
X009009Y008794D01*
X009009Y008344D01*
X009234Y008344D01*
X009309Y008419D01*
X009309Y008719D01*
X008849Y008794D02*
X008548Y008794D01*
X008548Y008344D01*
X008849Y008344D01*
X008699Y008569D02*
X008548Y008569D01*
X008388Y008344D02*
X008088Y008344D01*
X008088Y008794D01*
X009338Y010384D02*
X009638Y010384D01*
X009488Y010384D02*
X009488Y010834D01*
X009338Y010684D01*
X009913Y011284D02*
X009838Y011359D01*
X009913Y011284D02*
X010063Y011284D01*
X010138Y011359D01*
X010138Y011434D01*
X010063Y011509D01*
X009913Y011509D01*
X009838Y011584D01*
X009838Y011659D01*
X009913Y011734D01*
X010063Y011734D01*
X010138Y011659D01*
X010298Y011734D02*
X010298Y011434D01*
X010449Y011284D01*
X010599Y011434D01*
X010599Y011734D01*
X010759Y011659D02*
X010834Y011734D01*
X010984Y011734D01*
X011059Y011659D01*
X011059Y011584D01*
X010984Y011509D01*
X011059Y011434D01*
X011059Y011359D01*
X010984Y011284D01*
X010834Y011284D01*
X010759Y011359D01*
X010909Y011509D02*
X010984Y011509D01*
X012588Y008794D02*
X012588Y008344D01*
X012888Y008344D01*
X013048Y008344D02*
X013349Y008344D01*
X013509Y008344D02*
X013734Y008344D01*
X013809Y008419D01*
X013809Y008719D01*
X013734Y008794D01*
X013509Y008794D01*
X013509Y008344D01*
X013199Y008569D02*
X013048Y008569D01*
X013048Y008794D02*
X013048Y008344D01*
X013048Y008794D02*
X013349Y008794D01*
X013969Y008719D02*
X014044Y008794D01*
X014194Y008794D01*
X014269Y008719D01*
X014269Y008644D01*
X014194Y008569D01*
X014269Y008494D01*
X014269Y008419D01*
X014194Y008344D01*
X014044Y008344D01*
X013969Y008419D01*
X014119Y008569D02*
X014194Y008569D01*
X006559Y011284D02*
X006259Y011284D01*
X006409Y011284D02*
X006409Y011734D01*
X006259Y011584D01*
X006099Y011434D02*
X006099Y011734D01*
X005798Y011734D02*
X005798Y011434D01*
X005949Y011284D01*
X006099Y011434D01*
X005638Y011434D02*
X005638Y011359D01*
X005563Y011284D01*
X005413Y011284D01*
X005338Y011359D01*
X005413Y011509D02*
X005338Y011584D01*
X005338Y011659D01*
X005413Y011734D01*
X005563Y011734D01*
X005638Y011659D01*
X005563Y011509D02*
X005413Y011509D01*
X005563Y011509D02*
X005638Y011434D01*
X004988Y010834D02*
X004988Y010384D01*
X004838Y010384D02*
X005138Y010384D01*
X004838Y010684D02*
X004988Y010834D01*
X005044Y008794D02*
X004969Y008719D01*
X005044Y008794D02*
X005194Y008794D01*
X005269Y008719D01*
X005269Y008644D01*
X004969Y008344D01*
X005269Y008344D01*
X004809Y008419D02*
X004809Y008719D01*
X004734Y008794D01*
X004509Y008794D01*
X004509Y008344D01*
X004734Y008344D01*
X004809Y008419D01*
X004349Y008344D02*
X004048Y008344D01*
X004048Y008794D01*
X004349Y008794D01*
X004199Y008569D02*
X004048Y008569D01*
X003888Y008344D02*
X003588Y008344D01*
X003588Y008794D01*
X002059Y011284D02*
X001759Y011284D01*
X002059Y011584D01*
X002059Y011659D01*
X001984Y011734D01*
X001834Y011734D01*
X001759Y011659D01*
X001599Y011734D02*
X001599Y011434D01*
X001449Y011284D01*
X001298Y011434D01*
X001298Y011734D01*
X001138Y011659D02*
X001063Y011734D01*
X000913Y011734D01*
X000838Y011659D01*
X000838Y011584D01*
X000913Y011509D01*
X001063Y011509D01*
X001138Y011434D01*
X001138Y011359D01*
X001063Y011284D01*
X000913Y011284D01*
X000838Y011359D01*
X000488Y010834D02*
X000488Y010384D01*
X000338Y010384D02*
X000638Y010384D01*
X000338Y010684D02*
X000488Y010834D01*
D11*
X000813Y010859D02*
X001063Y011109D01*
X001563Y011109D01*
X001813Y010859D01*
X002063Y011109D01*
X002563Y011109D01*
X002813Y010859D01*
X003063Y011109D01*
X003563Y011109D01*
X003813Y010859D01*
X003813Y010359D01*
X003563Y010109D01*
X003063Y010109D01*
X002813Y010359D01*
X002563Y010109D01*
X002063Y010109D01*
X001813Y010359D01*
X001563Y010109D01*
X001063Y010109D01*
X000813Y010359D01*
X000813Y010859D01*
X001313Y008109D02*
X001315Y008172D01*
X001321Y008234D01*
X001331Y008296D01*
X001344Y008358D01*
X001362Y008418D01*
X001383Y008477D01*
X001408Y008535D01*
X001437Y008591D01*
X001469Y008645D01*
X001504Y008697D01*
X001542Y008746D01*
X001584Y008794D01*
X001628Y008838D01*
X001676Y008880D01*
X001725Y008918D01*
X001777Y008953D01*
X001831Y008985D01*
X001887Y009014D01*
X001945Y009039D01*
X002004Y009060D01*
X002064Y009078D01*
X002126Y009091D01*
X002188Y009101D01*
X002250Y009107D01*
X002313Y009109D01*
X002376Y009107D01*
X002438Y009101D01*
X002500Y009091D01*
X002562Y009078D01*
X002622Y009060D01*
X002681Y009039D01*
X002739Y009014D01*
X002795Y008985D01*
X002849Y008953D01*
X002901Y008918D01*
X002950Y008880D01*
X002998Y008838D01*
X003042Y008794D01*
X003084Y008746D01*
X003122Y008697D01*
X003157Y008645D01*
X003189Y008591D01*
X003218Y008535D01*
X003243Y008477D01*
X003264Y008418D01*
X003282Y008358D01*
X003295Y008296D01*
X003305Y008234D01*
X003311Y008172D01*
X003313Y008109D01*
X003311Y008046D01*
X003305Y007984D01*
X003295Y007922D01*
X003282Y007860D01*
X003264Y007800D01*
X003243Y007741D01*
X003218Y007683D01*
X003189Y007627D01*
X003157Y007573D01*
X003122Y007521D01*
X003084Y007472D01*
X003042Y007424D01*
X002998Y007380D01*
X002950Y007338D01*
X002901Y007300D01*
X002849Y007265D01*
X002795Y007233D01*
X002739Y007204D01*
X002681Y007179D01*
X002622Y007158D01*
X002562Y007140D01*
X002500Y007127D01*
X002438Y007117D01*
X002376Y007111D01*
X002313Y007109D01*
X002250Y007111D01*
X002188Y007117D01*
X002126Y007127D01*
X002064Y007140D01*
X002004Y007158D01*
X001945Y007179D01*
X001887Y007204D01*
X001831Y007233D01*
X001777Y007265D01*
X001725Y007300D01*
X001676Y007338D01*
X001628Y007380D01*
X001584Y007424D01*
X001542Y007472D01*
X001504Y007521D01*
X001469Y007573D01*
X001437Y007627D01*
X001408Y007683D01*
X001383Y007741D01*
X001362Y007800D01*
X001344Y007860D01*
X001331Y007922D01*
X001321Y007984D01*
X001315Y008046D01*
X001313Y008109D01*
X001713Y005959D02*
X001813Y005959D01*
X001863Y005909D01*
X002763Y005909D01*
X002813Y005959D01*
X002913Y005959D01*
X002930Y005957D01*
X002947Y005953D01*
X002963Y005946D01*
X002977Y005936D01*
X002990Y005923D01*
X003000Y005909D01*
X003007Y005893D01*
X003011Y005876D01*
X003013Y005859D01*
X003013Y005359D02*
X003011Y005342D01*
X003007Y005325D01*
X003000Y005309D01*
X002990Y005295D01*
X002977Y005282D01*
X002963Y005272D01*
X002947Y005265D01*
X002930Y005261D01*
X002913Y005259D01*
X002813Y005259D01*
X002763Y005309D01*
X001863Y005309D01*
X001813Y005259D01*
X001713Y005259D01*
X001696Y005261D01*
X001679Y005265D01*
X001663Y005272D01*
X001649Y005282D01*
X001636Y005295D01*
X001626Y005309D01*
X001619Y005325D01*
X001615Y005342D01*
X001613Y005359D01*
X001613Y005859D02*
X001615Y005876D01*
X001619Y005893D01*
X001626Y005909D01*
X001636Y005923D01*
X001649Y005936D01*
X001663Y005946D01*
X001679Y005953D01*
X001696Y005957D01*
X001713Y005959D01*
X004713Y004959D02*
X004813Y004959D01*
X004863Y004909D01*
X005763Y004909D01*
X005813Y004959D01*
X005913Y004959D01*
X005930Y004957D01*
X005947Y004953D01*
X005963Y004946D01*
X005977Y004936D01*
X005990Y004923D01*
X006000Y004909D01*
X006007Y004893D01*
X006011Y004876D01*
X006013Y004859D01*
X006213Y005259D02*
X006313Y005259D01*
X006363Y005309D01*
X007263Y005309D01*
X007313Y005259D01*
X007413Y005259D01*
X007430Y005261D01*
X007447Y005265D01*
X007463Y005272D01*
X007477Y005282D01*
X007490Y005295D01*
X007500Y005309D01*
X007507Y005325D01*
X007511Y005342D01*
X007513Y005359D01*
X007513Y005859D02*
X007511Y005876D01*
X007507Y005893D01*
X007500Y005909D01*
X007490Y005923D01*
X007477Y005936D01*
X007463Y005946D01*
X007447Y005953D01*
X007430Y005957D01*
X007413Y005959D01*
X007313Y005959D01*
X007263Y005909D01*
X006363Y005909D01*
X006313Y005959D01*
X006213Y005959D01*
X006196Y005957D01*
X006179Y005953D01*
X006163Y005946D01*
X006149Y005936D01*
X006136Y005923D01*
X006126Y005909D01*
X006119Y005893D01*
X006115Y005876D01*
X006113Y005859D01*
X006113Y005359D02*
X006115Y005342D01*
X006119Y005325D01*
X006126Y005309D01*
X006136Y005295D01*
X006149Y005282D01*
X006163Y005272D01*
X006179Y005265D01*
X006196Y005261D01*
X006213Y005259D01*
X006013Y004359D02*
X006011Y004342D01*
X006007Y004325D01*
X006000Y004309D01*
X005990Y004295D01*
X005977Y004282D01*
X005963Y004272D01*
X005947Y004265D01*
X005930Y004261D01*
X005913Y004259D01*
X005813Y004259D01*
X005763Y004309D01*
X004863Y004309D01*
X004813Y004259D01*
X004713Y004259D01*
X004696Y004261D01*
X004679Y004265D01*
X004663Y004272D01*
X004649Y004282D01*
X004636Y004295D01*
X004626Y004309D01*
X004619Y004325D01*
X004615Y004342D01*
X004613Y004359D01*
X004613Y004859D02*
X004615Y004876D01*
X004619Y004893D01*
X004626Y004909D01*
X004636Y004923D01*
X004649Y004936D01*
X004663Y004946D01*
X004679Y004953D01*
X004696Y004957D01*
X004713Y004959D01*
X008413Y005159D02*
X008613Y005159D01*
X008513Y005059D02*
X008513Y005259D01*
X008013Y004609D02*
X008015Y004665D01*
X008021Y004722D01*
X008031Y004777D01*
X008045Y004832D01*
X008062Y004886D01*
X008084Y004938D01*
X008109Y004988D01*
X008137Y005037D01*
X008169Y005084D01*
X008204Y005128D01*
X008242Y005170D01*
X008283Y005209D01*
X008327Y005244D01*
X008373Y005277D01*
X008421Y005306D01*
X008471Y005332D01*
X008523Y005355D01*
X008577Y005373D01*
X008631Y005388D01*
X008686Y005399D01*
X008742Y005406D01*
X008799Y005409D01*
X008855Y005408D01*
X008912Y005403D01*
X008967Y005394D01*
X009022Y005381D01*
X009076Y005364D01*
X009129Y005344D01*
X009180Y005320D01*
X009229Y005292D01*
X009276Y005261D01*
X009321Y005227D01*
X009364Y005189D01*
X009403Y005149D01*
X009440Y005106D01*
X009473Y005061D01*
X009503Y005013D01*
X009530Y004963D01*
X009553Y004912D01*
X009573Y004859D01*
X009589Y004805D01*
X009601Y004749D01*
X009609Y004694D01*
X009613Y004637D01*
X009613Y004581D01*
X009609Y004524D01*
X009601Y004469D01*
X009589Y004413D01*
X009573Y004359D01*
X009553Y004306D01*
X009530Y004255D01*
X009503Y004205D01*
X009473Y004157D01*
X009440Y004112D01*
X009403Y004069D01*
X009364Y004029D01*
X009321Y003991D01*
X009276Y003957D01*
X009229Y003926D01*
X009180Y003898D01*
X009129Y003874D01*
X009076Y003854D01*
X009022Y003837D01*
X008967Y003824D01*
X008912Y003815D01*
X008855Y003810D01*
X008799Y003809D01*
X008742Y003812D01*
X008686Y003819D01*
X008631Y003830D01*
X008577Y003845D01*
X008523Y003863D01*
X008471Y003886D01*
X008421Y003912D01*
X008373Y003941D01*
X008327Y003974D01*
X008283Y004009D01*
X008242Y004048D01*
X008204Y004090D01*
X008169Y004134D01*
X008137Y004181D01*
X008109Y004230D01*
X008084Y004280D01*
X008062Y004332D01*
X008045Y004386D01*
X008031Y004441D01*
X008021Y004496D01*
X008015Y004553D01*
X008013Y004609D01*
X010713Y005759D02*
X010813Y005759D01*
X010863Y005809D01*
X011763Y005809D01*
X011813Y005759D01*
X011913Y005759D01*
X011930Y005761D01*
X011947Y005765D01*
X011963Y005772D01*
X011977Y005782D01*
X011990Y005795D01*
X012000Y005809D01*
X012007Y005825D01*
X012011Y005842D01*
X012013Y005859D01*
X012013Y006359D02*
X012011Y006376D01*
X012007Y006393D01*
X012000Y006409D01*
X011990Y006423D01*
X011977Y006436D01*
X011963Y006446D01*
X011947Y006453D01*
X011930Y006457D01*
X011913Y006459D01*
X011813Y006459D01*
X011763Y006409D01*
X010863Y006409D01*
X010813Y006459D01*
X010713Y006459D01*
X010696Y006457D01*
X010679Y006453D01*
X010663Y006446D01*
X010649Y006436D01*
X010636Y006423D01*
X010626Y006409D01*
X010619Y006393D01*
X010615Y006376D01*
X010613Y006359D01*
X010613Y005859D02*
X010615Y005842D01*
X010619Y005825D01*
X010626Y005809D01*
X010636Y005795D01*
X010649Y005782D01*
X010663Y005772D01*
X010679Y005765D01*
X010696Y005761D01*
X010713Y005759D01*
X010313Y008109D02*
X010315Y008172D01*
X010321Y008234D01*
X010331Y008296D01*
X010344Y008358D01*
X010362Y008418D01*
X010383Y008477D01*
X010408Y008535D01*
X010437Y008591D01*
X010469Y008645D01*
X010504Y008697D01*
X010542Y008746D01*
X010584Y008794D01*
X010628Y008838D01*
X010676Y008880D01*
X010725Y008918D01*
X010777Y008953D01*
X010831Y008985D01*
X010887Y009014D01*
X010945Y009039D01*
X011004Y009060D01*
X011064Y009078D01*
X011126Y009091D01*
X011188Y009101D01*
X011250Y009107D01*
X011313Y009109D01*
X011376Y009107D01*
X011438Y009101D01*
X011500Y009091D01*
X011562Y009078D01*
X011622Y009060D01*
X011681Y009039D01*
X011739Y009014D01*
X011795Y008985D01*
X011849Y008953D01*
X011901Y008918D01*
X011950Y008880D01*
X011998Y008838D01*
X012042Y008794D01*
X012084Y008746D01*
X012122Y008697D01*
X012157Y008645D01*
X012189Y008591D01*
X012218Y008535D01*
X012243Y008477D01*
X012264Y008418D01*
X012282Y008358D01*
X012295Y008296D01*
X012305Y008234D01*
X012311Y008172D01*
X012313Y008109D01*
X012311Y008046D01*
X012305Y007984D01*
X012295Y007922D01*
X012282Y007860D01*
X012264Y007800D01*
X012243Y007741D01*
X012218Y007683D01*
X012189Y007627D01*
X012157Y007573D01*
X012122Y007521D01*
X012084Y007472D01*
X012042Y007424D01*
X011998Y007380D01*
X011950Y007338D01*
X011901Y007300D01*
X011849Y007265D01*
X011795Y007233D01*
X011739Y007204D01*
X011681Y007179D01*
X011622Y007158D01*
X011562Y007140D01*
X011500Y007127D01*
X011438Y007117D01*
X011376Y007111D01*
X011313Y007109D01*
X011250Y007111D01*
X011188Y007117D01*
X011126Y007127D01*
X011064Y007140D01*
X011004Y007158D01*
X010945Y007179D01*
X010887Y007204D01*
X010831Y007233D01*
X010777Y007265D01*
X010725Y007300D01*
X010676Y007338D01*
X010628Y007380D01*
X010584Y007424D01*
X010542Y007472D01*
X010504Y007521D01*
X010469Y007573D01*
X010437Y007627D01*
X010408Y007683D01*
X010383Y007741D01*
X010362Y007800D01*
X010344Y007860D01*
X010331Y007922D01*
X010321Y007984D01*
X010315Y008046D01*
X010313Y008109D01*
X010563Y010109D02*
X010063Y010109D01*
X009813Y010359D01*
X009813Y010859D01*
X010063Y011109D01*
X010563Y011109D01*
X010813Y010859D01*
X011063Y011109D01*
X011563Y011109D01*
X011813Y010859D01*
X012063Y011109D01*
X012563Y011109D01*
X012813Y010859D01*
X012813Y010359D01*
X012563Y010109D01*
X012063Y010109D01*
X011813Y010359D01*
X011563Y010109D01*
X011063Y010109D01*
X010813Y010359D01*
X010563Y010109D01*
X008313Y010359D02*
X008313Y010859D01*
X008063Y011109D01*
X007563Y011109D01*
X007313Y010859D01*
X007063Y011109D01*
X006563Y011109D01*
X006313Y010859D01*
X006063Y011109D01*
X005563Y011109D01*
X005313Y010859D01*
X005313Y010359D01*
X005563Y010109D01*
X006063Y010109D01*
X006313Y010359D01*
X006563Y010109D01*
X007063Y010109D01*
X007313Y010359D01*
X007563Y010109D01*
X008063Y010109D01*
X008313Y010359D01*
X005813Y008109D02*
X005815Y008172D01*
X005821Y008234D01*
X005831Y008296D01*
X005844Y008358D01*
X005862Y008418D01*
X005883Y008477D01*
X005908Y008535D01*
X005937Y008591D01*
X005969Y008645D01*
X006004Y008697D01*
X006042Y008746D01*
X006084Y008794D01*
X006128Y008838D01*
X006176Y008880D01*
X006225Y008918D01*
X006277Y008953D01*
X006331Y008985D01*
X006387Y009014D01*
X006445Y009039D01*
X006504Y009060D01*
X006564Y009078D01*
X006626Y009091D01*
X006688Y009101D01*
X006750Y009107D01*
X006813Y009109D01*
X006876Y009107D01*
X006938Y009101D01*
X007000Y009091D01*
X007062Y009078D01*
X007122Y009060D01*
X007181Y009039D01*
X007239Y009014D01*
X007295Y008985D01*
X007349Y008953D01*
X007401Y008918D01*
X007450Y008880D01*
X007498Y008838D01*
X007542Y008794D01*
X007584Y008746D01*
X007622Y008697D01*
X007657Y008645D01*
X007689Y008591D01*
X007718Y008535D01*
X007743Y008477D01*
X007764Y008418D01*
X007782Y008358D01*
X007795Y008296D01*
X007805Y008234D01*
X007811Y008172D01*
X007813Y008109D01*
X007811Y008046D01*
X007805Y007984D01*
X007795Y007922D01*
X007782Y007860D01*
X007764Y007800D01*
X007743Y007741D01*
X007718Y007683D01*
X007689Y007627D01*
X007657Y007573D01*
X007622Y007521D01*
X007584Y007472D01*
X007542Y007424D01*
X007498Y007380D01*
X007450Y007338D01*
X007401Y007300D01*
X007349Y007265D01*
X007295Y007233D01*
X007239Y007204D01*
X007181Y007179D01*
X007122Y007158D01*
X007062Y007140D01*
X007000Y007127D01*
X006938Y007117D01*
X006876Y007111D01*
X006813Y007109D01*
X006750Y007111D01*
X006688Y007117D01*
X006626Y007127D01*
X006564Y007140D01*
X006504Y007158D01*
X006445Y007179D01*
X006387Y007204D01*
X006331Y007233D01*
X006277Y007265D01*
X006225Y007300D01*
X006176Y007338D01*
X006128Y007380D01*
X006084Y007424D01*
X006042Y007472D01*
X006004Y007521D01*
X005969Y007573D01*
X005937Y007627D01*
X005908Y007683D01*
X005883Y007741D01*
X005862Y007800D01*
X005844Y007860D01*
X005831Y007922D01*
X005821Y007984D01*
X005815Y008046D01*
X005813Y008109D01*
D12*
X001246Y003711D02*
X001246Y001270D01*
X004002Y001270D01*
X004002Y003711D01*
X001246Y003711D01*
X001246Y004026D01*
X004002Y004026D01*
X004002Y003711D01*
X004524Y002965D02*
X004524Y001252D01*
X009102Y001252D01*
X009102Y002965D01*
X004524Y002965D01*
X003313Y007359D02*
X003313Y008859D01*
X007813Y008859D02*
X007813Y007359D01*
X012313Y007359D02*
X012313Y008859D01*
X012603Y003459D02*
X010023Y003459D01*
X010023Y001099D01*
X012603Y001099D02*
X012603Y003459D01*
D13*
X003771Y001454D02*
X003671Y001454D01*
X003721Y001454D02*
X003721Y001604D01*
X003671Y001554D01*
X003624Y001579D02*
X003598Y001604D01*
X003523Y001604D01*
X003523Y001454D01*
X003523Y001504D02*
X003598Y001504D01*
X003624Y001529D01*
X003624Y001579D01*
X003476Y001604D02*
X003426Y001604D01*
X003451Y001604D02*
X003451Y001479D01*
X003426Y001454D01*
X003401Y001454D01*
X003376Y001479D01*
D14*
X004493Y003719D02*
X004727Y003719D01*
X004610Y003719D02*
X004610Y004069D01*
X004493Y003952D01*
X004852Y003894D02*
X004969Y003952D01*
X005027Y003952D01*
X005086Y003894D01*
X005086Y003777D01*
X005027Y003719D01*
X004911Y003719D01*
X004852Y003777D01*
X004852Y003894D02*
X004852Y004069D01*
X005086Y004069D01*
X005211Y004069D02*
X005328Y003952D01*
X005445Y004069D01*
X005445Y003719D01*
X005211Y003719D02*
X005211Y004069D01*
X005136Y005089D02*
X004902Y005089D01*
X005136Y005322D01*
X005136Y005381D01*
X005077Y005439D01*
X004961Y005439D01*
X004902Y005381D01*
X004777Y005381D02*
X004777Y005264D01*
X004718Y005205D01*
X004543Y005205D01*
X004543Y005089D02*
X004543Y005439D01*
X004718Y005439D01*
X004777Y005381D01*
X004660Y005205D02*
X004777Y005089D01*
X002997Y005071D02*
X002997Y005012D01*
X002939Y004954D01*
X002997Y004895D01*
X002997Y004837D01*
X002939Y004779D01*
X002822Y004779D01*
X002764Y004837D01*
X002638Y004779D02*
X002522Y004895D01*
X002580Y004895D02*
X002405Y004895D01*
X002405Y004779D02*
X002405Y005129D01*
X002580Y005129D01*
X002638Y005071D01*
X002638Y004954D01*
X002580Y004895D01*
X002764Y005071D02*
X002822Y005129D01*
X002939Y005129D01*
X002997Y005071D01*
X002939Y004954D02*
X002881Y004954D01*
X002872Y006149D02*
X002814Y006207D01*
X003047Y006441D01*
X003047Y006207D01*
X002989Y006149D01*
X002872Y006149D01*
X002814Y006207D02*
X002814Y006441D01*
X002872Y006499D01*
X002989Y006499D01*
X003047Y006441D01*
X002688Y006441D02*
X002688Y006382D01*
X002630Y006324D01*
X002688Y006265D01*
X002688Y006207D01*
X002630Y006149D01*
X002513Y006149D01*
X002455Y006207D01*
X002329Y006207D02*
X002329Y006265D01*
X002271Y006324D01*
X002213Y006324D01*
X002271Y006324D02*
X002329Y006382D01*
X002329Y006441D01*
X002271Y006499D01*
X002154Y006499D01*
X002096Y006441D01*
X002096Y006207D02*
X002154Y006149D01*
X002271Y006149D01*
X002329Y006207D01*
X002455Y006441D02*
X002513Y006499D01*
X002630Y006499D01*
X002688Y006441D01*
X002630Y006324D02*
X002572Y006324D01*
X006596Y006441D02*
X006654Y006499D01*
X006771Y006499D01*
X006829Y006441D01*
X006829Y006382D01*
X006771Y006324D01*
X006829Y006265D01*
X006829Y006207D01*
X006771Y006149D01*
X006654Y006149D01*
X006596Y006207D01*
X006713Y006324D02*
X006771Y006324D01*
X006955Y006441D02*
X007013Y006499D01*
X007130Y006499D01*
X007188Y006441D01*
X007188Y006382D01*
X007130Y006324D01*
X007188Y006265D01*
X007188Y006207D01*
X007130Y006149D01*
X007013Y006149D01*
X006955Y006207D01*
X007072Y006324D02*
X007130Y006324D01*
X007314Y006441D02*
X007372Y006499D01*
X007489Y006499D01*
X007547Y006441D01*
X007314Y006207D01*
X007372Y006149D01*
X007489Y006149D01*
X007547Y006207D01*
X007547Y006441D01*
X007314Y006441D02*
X007314Y006207D01*
X007381Y005129D02*
X007264Y005012D01*
X007138Y004954D02*
X007080Y004895D01*
X006905Y004895D01*
X006905Y004779D02*
X006905Y005129D01*
X007080Y005129D01*
X007138Y005071D01*
X007138Y004954D01*
X007022Y004895D02*
X007138Y004779D01*
X007264Y004779D02*
X007497Y004779D01*
X007381Y004779D02*
X007381Y005129D01*
X009333Y003475D02*
X009333Y003168D01*
X009409Y003015D02*
X009333Y002938D01*
X009333Y002708D01*
X009793Y002708D01*
X009793Y002938D01*
X009716Y003015D01*
X009409Y003015D01*
X009333Y003322D02*
X009793Y003322D01*
X009716Y002554D02*
X009563Y002554D01*
X009486Y002478D01*
X009486Y002401D01*
X009563Y002247D01*
X009333Y002247D01*
X009333Y002554D01*
X009716Y002554D02*
X009793Y002478D01*
X009793Y002324D01*
X009716Y002247D01*
X009716Y002094D02*
X009793Y002017D01*
X009793Y001864D01*
X009716Y001787D01*
X009409Y002094D01*
X009716Y002094D01*
X009409Y002094D02*
X009333Y002017D01*
X009333Y001864D01*
X009409Y001787D01*
X009716Y001787D01*
X009716Y001634D02*
X009640Y001634D01*
X009563Y001557D01*
X009563Y001403D01*
X009486Y001327D01*
X009409Y001327D01*
X009333Y001403D01*
X009333Y001557D01*
X009409Y001634D01*
X009486Y001634D01*
X009563Y001557D01*
X009563Y001403D02*
X009640Y001327D01*
X009716Y001327D01*
X009793Y001403D01*
X009793Y001557D01*
X009716Y001634D01*
X009409Y001173D02*
X009333Y001173D01*
X009333Y000866D01*
X009409Y001173D02*
X009716Y000866D01*
X009793Y000866D01*
X012833Y002401D02*
X012833Y002554D01*
X012833Y002478D02*
X013293Y002478D01*
X013293Y002554D02*
X013293Y002401D01*
X013216Y002708D02*
X012909Y002708D01*
X012833Y002785D01*
X012833Y002938D01*
X012909Y003015D01*
X012909Y003168D02*
X012833Y003245D01*
X012833Y003398D01*
X012909Y003475D01*
X012986Y003475D01*
X013293Y003168D01*
X013293Y003475D01*
X013216Y003015D02*
X013293Y002938D01*
X013293Y002785D01*
X013216Y002708D01*
X011939Y005279D02*
X011939Y005629D01*
X011764Y005454D01*
X011997Y005454D01*
X011638Y005454D02*
X011580Y005395D01*
X011405Y005395D01*
X011405Y005279D02*
X011405Y005629D01*
X011580Y005629D01*
X011638Y005571D01*
X011638Y005454D01*
X011522Y005395D02*
X011638Y005279D01*
X011630Y006649D02*
X011513Y006649D01*
X011455Y006707D01*
X011329Y006707D02*
X011329Y006765D01*
X011271Y006824D01*
X011213Y006824D01*
X011271Y006824D02*
X011329Y006882D01*
X011329Y006941D01*
X011271Y006999D01*
X011154Y006999D01*
X011096Y006941D01*
X011096Y006707D02*
X011154Y006649D01*
X011271Y006649D01*
X011329Y006707D01*
X011455Y006941D02*
X011513Y006999D01*
X011630Y006999D01*
X011688Y006941D01*
X011688Y006882D01*
X011630Y006824D01*
X011688Y006765D01*
X011688Y006707D01*
X011630Y006649D01*
X011630Y006824D02*
X011572Y006824D01*
X011814Y006707D02*
X011814Y006941D01*
X011872Y006999D01*
X011989Y006999D01*
X012047Y006941D01*
X011814Y006707D01*
X011872Y006649D01*
X011989Y006649D01*
X012047Y006707D01*
X012047Y006941D01*
D15*
X010478Y003419D02*
X010478Y002999D01*
X010478Y003209D02*
X009848Y003209D01*
X010058Y002999D01*
X009953Y002775D02*
X009848Y002670D01*
X009848Y002460D01*
X009953Y002355D01*
X010058Y002355D01*
X010163Y002460D01*
X010163Y002670D01*
X010268Y002775D01*
X010373Y002775D01*
X010478Y002670D01*
X010478Y002460D01*
X010373Y002355D01*
D16*
X012313Y007359D02*
X012270Y007305D01*
X012224Y007253D01*
X012175Y007204D01*
X012123Y007157D01*
X012069Y007114D01*
X012013Y007073D01*
X011954Y007036D01*
X011894Y007002D01*
X011831Y006972D01*
X011768Y006945D01*
X011702Y006921D01*
X011636Y006901D01*
X011568Y006885D01*
X011500Y006873D01*
X011431Y006865D01*
X011362Y006860D01*
X011292Y006859D01*
X011223Y006862D01*
X011154Y006869D01*
X011086Y006880D01*
X011018Y006894D01*
X010951Y006913D01*
X010885Y006935D01*
X010820Y006960D01*
X010757Y006989D01*
X010696Y007022D01*
X010637Y007058D01*
X010580Y007097D01*
X010524Y007139D01*
X010472Y007184D01*
X010422Y007232D01*
X010375Y007283D01*
X010330Y007337D01*
X010289Y007392D01*
X010251Y007450D01*
X010216Y007510D01*
X010184Y007572D01*
X010156Y007635D01*
X010132Y007700D01*
X010111Y007766D01*
X010094Y007834D01*
X010080Y007902D01*
X010071Y007971D01*
X010065Y008040D01*
X010063Y008109D01*
X010065Y008178D01*
X010071Y008247D01*
X010080Y008316D01*
X010094Y008384D01*
X010111Y008452D01*
X010132Y008518D01*
X010156Y008583D01*
X010184Y008646D01*
X010216Y008708D01*
X010251Y008768D01*
X010289Y008826D01*
X010330Y008881D01*
X010375Y008935D01*
X010422Y008986D01*
X010472Y009034D01*
X010524Y009079D01*
X010580Y009121D01*
X010637Y009160D01*
X010696Y009196D01*
X010757Y009229D01*
X010820Y009258D01*
X010885Y009283D01*
X010951Y009305D01*
X011018Y009324D01*
X011086Y009338D01*
X011154Y009349D01*
X011223Y009356D01*
X011292Y009359D01*
X011362Y009358D01*
X011431Y009353D01*
X011500Y009345D01*
X011568Y009333D01*
X011636Y009317D01*
X011702Y009297D01*
X011768Y009273D01*
X011831Y009246D01*
X011894Y009216D01*
X011954Y009182D01*
X012013Y009145D01*
X012069Y009104D01*
X012123Y009061D01*
X012175Y009014D01*
X012224Y008965D01*
X012270Y008913D01*
X012313Y008859D01*
X007813Y008859D02*
X007770Y008913D01*
X007724Y008965D01*
X007675Y009014D01*
X007623Y009061D01*
X007569Y009104D01*
X007513Y009145D01*
X007454Y009182D01*
X007394Y009216D01*
X007331Y009246D01*
X007268Y009273D01*
X007202Y009297D01*
X007136Y009317D01*
X007068Y009333D01*
X007000Y009345D01*
X006931Y009353D01*
X006862Y009358D01*
X006792Y009359D01*
X006723Y009356D01*
X006654Y009349D01*
X006586Y009338D01*
X006518Y009324D01*
X006451Y009305D01*
X006385Y009283D01*
X006320Y009258D01*
X006257Y009229D01*
X006196Y009196D01*
X006137Y009160D01*
X006080Y009121D01*
X006024Y009079D01*
X005972Y009034D01*
X005922Y008986D01*
X005875Y008935D01*
X005830Y008881D01*
X005789Y008826D01*
X005751Y008768D01*
X005716Y008708D01*
X005684Y008646D01*
X005656Y008583D01*
X005632Y008518D01*
X005611Y008452D01*
X005594Y008384D01*
X005580Y008316D01*
X005571Y008247D01*
X005565Y008178D01*
X005563Y008109D01*
X005565Y008040D01*
X005571Y007971D01*
X005580Y007902D01*
X005594Y007834D01*
X005611Y007766D01*
X005632Y007700D01*
X005656Y007635D01*
X005684Y007572D01*
X005716Y007510D01*
X005751Y007450D01*
X005789Y007392D01*
X005830Y007337D01*
X005875Y007283D01*
X005922Y007232D01*
X005972Y007184D01*
X006024Y007139D01*
X006080Y007097D01*
X006137Y007058D01*
X006196Y007022D01*
X006257Y006989D01*
X006320Y006960D01*
X006385Y006935D01*
X006451Y006913D01*
X006518Y006894D01*
X006586Y006880D01*
X006654Y006869D01*
X006723Y006862D01*
X006792Y006859D01*
X006862Y006860D01*
X006931Y006865D01*
X007000Y006873D01*
X007068Y006885D01*
X007136Y006901D01*
X007202Y006921D01*
X007268Y006945D01*
X007331Y006972D01*
X007394Y007002D01*
X007454Y007036D01*
X007513Y007073D01*
X007569Y007114D01*
X007623Y007157D01*
X007675Y007204D01*
X007724Y007253D01*
X007770Y007305D01*
X007813Y007359D01*
X003313Y007359D02*
X003270Y007305D01*
X003224Y007253D01*
X003175Y007204D01*
X003123Y007157D01*
X003069Y007114D01*
X003013Y007073D01*
X002954Y007036D01*
X002894Y007002D01*
X002831Y006972D01*
X002768Y006945D01*
X002702Y006921D01*
X002636Y006901D01*
X002568Y006885D01*
X002500Y006873D01*
X002431Y006865D01*
X002362Y006860D01*
X002292Y006859D01*
X002223Y006862D01*
X002154Y006869D01*
X002086Y006880D01*
X002018Y006894D01*
X001951Y006913D01*
X001885Y006935D01*
X001820Y006960D01*
X001757Y006989D01*
X001696Y007022D01*
X001637Y007058D01*
X001580Y007097D01*
X001524Y007139D01*
X001472Y007184D01*
X001422Y007232D01*
X001375Y007283D01*
X001330Y007337D01*
X001289Y007392D01*
X001251Y007450D01*
X001216Y007510D01*
X001184Y007572D01*
X001156Y007635D01*
X001132Y007700D01*
X001111Y007766D01*
X001094Y007834D01*
X001080Y007902D01*
X001071Y007971D01*
X001065Y008040D01*
X001063Y008109D01*
X001065Y008178D01*
X001071Y008247D01*
X001080Y008316D01*
X001094Y008384D01*
X001111Y008452D01*
X001132Y008518D01*
X001156Y008583D01*
X001184Y008646D01*
X001216Y008708D01*
X001251Y008768D01*
X001289Y008826D01*
X001330Y008881D01*
X001375Y008935D01*
X001422Y008986D01*
X001472Y009034D01*
X001524Y009079D01*
X001580Y009121D01*
X001637Y009160D01*
X001696Y009196D01*
X001757Y009229D01*
X001820Y009258D01*
X001885Y009283D01*
X001951Y009305D01*
X002018Y009324D01*
X002086Y009338D01*
X002154Y009349D01*
X002223Y009356D01*
X002292Y009359D01*
X002362Y009358D01*
X002431Y009353D01*
X002500Y009345D01*
X002568Y009333D01*
X002636Y009317D01*
X002702Y009297D01*
X002768Y009273D01*
X002831Y009246D01*
X002894Y009216D01*
X002954Y009182D01*
X003013Y009145D01*
X003069Y009104D01*
X003123Y009061D01*
X003175Y009014D01*
X003224Y008965D01*
X003270Y008913D01*
X003313Y008859D01*
D17*
X011313Y003649D03*
M02*
