G75*
G70*
%OFA0B0*%
%FSLAX24Y24*%
%IPPOS*%
%LPD*%
%AMOC8*
5,1,8,0,0,1.08239X$1,22.5*
%
%ADD10C,0.0050*%
%ADD11C,0.0060*%
%ADD12C,0.0080*%
%ADD13C,0.0040*%
%ADD14R,0.0340X0.0300*%
%ADD15C,0.0100*%
D10*
X002595Y002430D02*
X002896Y002430D01*
X002746Y002430D02*
X002746Y002880D01*
X002595Y002730D01*
X003056Y002805D02*
X003056Y002505D01*
X003356Y002805D01*
X003356Y002505D01*
X003281Y002430D01*
X003131Y002430D01*
X003056Y002505D01*
X003056Y002805D02*
X003131Y002880D01*
X003281Y002880D01*
X003356Y002805D01*
X003516Y002805D02*
X003516Y002505D01*
X003816Y002805D01*
X003816Y002505D01*
X003741Y002430D01*
X003591Y002430D01*
X003516Y002505D01*
X003516Y002805D02*
X003591Y002880D01*
X003741Y002880D01*
X003816Y002805D01*
X003977Y002730D02*
X004202Y002730D01*
X004277Y002655D01*
X004277Y002430D01*
X004437Y002430D02*
X004437Y002880D01*
X004737Y002880D01*
X004587Y002655D02*
X004437Y002655D01*
X003977Y002730D02*
X003977Y002430D01*
X003356Y003430D02*
X003056Y003430D01*
X003356Y003730D01*
X003356Y003805D01*
X003281Y003880D01*
X003131Y003880D01*
X003056Y003805D01*
X002896Y003805D02*
X002821Y003880D01*
X002671Y003880D01*
X002595Y003805D01*
X002595Y003505D01*
X002671Y003430D01*
X002821Y003430D01*
X002896Y003505D01*
X004896Y001330D02*
X004745Y001180D01*
X004896Y001330D02*
X004896Y000880D01*
X005046Y000880D02*
X004745Y000880D01*
X005321Y001780D02*
X005245Y001855D01*
X005321Y001780D02*
X005471Y001780D01*
X005546Y001855D01*
X005546Y001930D01*
X005471Y002005D01*
X005321Y002005D01*
X005245Y002080D01*
X005245Y002155D01*
X005321Y002230D01*
X005471Y002230D01*
X005546Y002155D01*
X005706Y002230D02*
X005706Y001930D01*
X005856Y001780D01*
X006006Y001930D01*
X006006Y002230D01*
X006166Y002080D02*
X006316Y002230D01*
X006316Y001780D01*
X006166Y001780D02*
X006466Y001780D01*
X006654Y004920D02*
X006954Y004920D01*
X007114Y004920D02*
X007415Y004920D01*
X007575Y004920D02*
X007800Y004920D01*
X007875Y004995D01*
X007875Y005295D01*
X007800Y005370D01*
X007575Y005370D01*
X007575Y004920D01*
X007264Y005145D02*
X007114Y005145D01*
X007114Y005370D02*
X007114Y004920D01*
X007114Y005370D02*
X007415Y005370D01*
X008035Y005220D02*
X008185Y005370D01*
X008185Y004920D01*
X008035Y004920D02*
X008335Y004920D01*
X006654Y004920D02*
X006654Y005370D01*
X004891Y008780D02*
X004741Y008780D01*
X004666Y008855D01*
X004666Y009005D02*
X004816Y009080D01*
X004891Y009080D01*
X004966Y009005D01*
X004966Y008855D01*
X004891Y008780D01*
X004666Y009005D02*
X004666Y009230D01*
X004966Y009230D01*
X004506Y009230D02*
X004506Y008930D01*
X004356Y008780D01*
X004206Y008930D01*
X004206Y009230D01*
X004046Y009155D02*
X003971Y009230D01*
X003821Y009230D01*
X003745Y009155D01*
X003745Y009080D01*
X003821Y009005D01*
X003971Y009005D01*
X004046Y008930D01*
X004046Y008855D01*
X003971Y008780D01*
X003821Y008780D01*
X003745Y008855D01*
X003821Y009780D02*
X003745Y009855D01*
X003821Y009780D02*
X003971Y009780D01*
X004046Y009855D01*
X004046Y009930D01*
X003971Y010005D01*
X003821Y010005D01*
X003745Y010080D01*
X003745Y010155D01*
X003821Y010230D01*
X003971Y010230D01*
X004046Y010155D01*
X004206Y010230D02*
X004206Y009930D01*
X004356Y009780D01*
X004506Y009930D01*
X004506Y010230D01*
X004666Y010005D02*
X004966Y010005D01*
X004891Y010230D02*
X004666Y010005D01*
X004891Y009780D02*
X004891Y010230D01*
X002846Y009730D02*
X002545Y009730D01*
X002560Y009480D02*
X002710Y009480D01*
X002785Y009405D01*
X002785Y009330D01*
X002710Y009255D01*
X002560Y009255D01*
X002485Y009330D01*
X002485Y009405D01*
X002560Y009480D01*
X002560Y009255D02*
X002485Y009180D01*
X002485Y009105D01*
X002560Y009030D01*
X002710Y009030D01*
X002785Y009105D01*
X002785Y009180D01*
X002710Y009255D01*
X002696Y009180D02*
X002696Y008730D01*
X002846Y008730D02*
X002545Y008730D01*
X002545Y009030D02*
X002696Y009180D01*
X002696Y009730D02*
X002696Y010180D01*
X002545Y010030D01*
X002545Y010980D02*
X002846Y010980D01*
X002696Y010980D02*
X002696Y011430D01*
X002545Y011280D01*
X002471Y012780D02*
X002321Y012780D01*
X002245Y012855D01*
X002321Y013005D02*
X002471Y013005D01*
X002546Y012930D01*
X002546Y012855D01*
X002471Y012780D01*
X002321Y013005D02*
X002245Y013080D01*
X002245Y013155D01*
X002321Y013230D01*
X002471Y013230D01*
X002546Y013155D01*
X002706Y013230D02*
X002706Y012930D01*
X002856Y012780D01*
X003006Y012930D01*
X003006Y013230D01*
X003166Y013155D02*
X003241Y013230D01*
X003391Y013230D01*
X003466Y013155D01*
X003466Y013080D01*
X003391Y013005D01*
X003466Y012930D01*
X003466Y012855D01*
X003391Y012780D01*
X003241Y012780D01*
X003166Y012855D01*
X003316Y013005D02*
X003391Y013005D01*
X007364Y009355D02*
X007364Y009280D01*
X007439Y009205D01*
X007589Y009205D01*
X007665Y009130D01*
X007665Y009055D01*
X007589Y008980D01*
X007439Y008980D01*
X007364Y009055D01*
X007364Y009355D02*
X007439Y009430D01*
X007589Y009430D01*
X007665Y009355D01*
X007825Y009430D02*
X007825Y009130D01*
X007975Y008980D01*
X008125Y009130D01*
X008125Y009430D01*
X008285Y009355D02*
X008360Y009430D01*
X008510Y009430D01*
X008585Y009355D01*
X008585Y009280D01*
X008285Y008980D01*
X008585Y008980D01*
X009485Y009030D02*
X009785Y009030D01*
X009846Y009030D02*
X009771Y008955D01*
X009621Y008955D01*
X009545Y009030D01*
X009545Y009105D01*
X009621Y009180D01*
X009771Y009180D01*
X009846Y009105D01*
X009846Y009030D01*
X009771Y008955D02*
X009846Y008880D01*
X009846Y008805D01*
X009771Y008730D01*
X009621Y008730D01*
X009545Y008805D01*
X009545Y008880D01*
X009621Y008955D01*
X009635Y009030D02*
X009635Y009480D01*
X009485Y009330D01*
X009621Y009730D02*
X009545Y009805D01*
X009545Y009880D01*
X009621Y009955D01*
X009771Y009955D01*
X009846Y009880D01*
X009846Y009805D01*
X009771Y009730D01*
X009621Y009730D01*
X009621Y009955D02*
X009545Y010030D01*
X009545Y010105D01*
X009621Y010180D01*
X009771Y010180D01*
X009846Y010105D01*
X009846Y010030D01*
X009771Y009955D01*
X009721Y012780D02*
X009571Y012780D01*
X009495Y012855D01*
X009495Y012930D01*
X009571Y013005D01*
X009721Y013005D01*
X009796Y012930D01*
X009796Y012855D01*
X009721Y012780D01*
X009721Y013005D02*
X009796Y013080D01*
X009796Y013155D01*
X009721Y013230D01*
X009571Y013230D01*
X009495Y013155D01*
X009495Y013080D01*
X009571Y013005D01*
D11*
X000920Y003105D02*
X000922Y003161D01*
X000928Y003218D01*
X000938Y003273D01*
X000952Y003328D01*
X000969Y003382D01*
X000991Y003434D01*
X001016Y003484D01*
X001044Y003533D01*
X001076Y003580D01*
X001111Y003624D01*
X001149Y003666D01*
X001190Y003705D01*
X001234Y003740D01*
X001280Y003773D01*
X001328Y003802D01*
X001378Y003828D01*
X001430Y003851D01*
X001484Y003869D01*
X001538Y003884D01*
X001593Y003895D01*
X001649Y003902D01*
X001706Y003905D01*
X001762Y003904D01*
X001819Y003899D01*
X001874Y003890D01*
X001929Y003877D01*
X001983Y003860D01*
X002036Y003840D01*
X002087Y003816D01*
X002136Y003788D01*
X002183Y003757D01*
X002228Y003723D01*
X002271Y003685D01*
X002310Y003645D01*
X002347Y003602D01*
X002380Y003557D01*
X002410Y003509D01*
X002437Y003459D01*
X002460Y003408D01*
X002480Y003355D01*
X002496Y003301D01*
X002508Y003245D01*
X002516Y003190D01*
X002520Y003133D01*
X002520Y003077D01*
X002516Y003020D01*
X002508Y002965D01*
X002496Y002909D01*
X002480Y002855D01*
X002460Y002802D01*
X002437Y002751D01*
X002410Y002701D01*
X002380Y002653D01*
X002347Y002608D01*
X002310Y002565D01*
X002271Y002525D01*
X002228Y002487D01*
X002183Y002453D01*
X002136Y002422D01*
X002087Y002394D01*
X002036Y002370D01*
X001983Y002350D01*
X001929Y002333D01*
X001874Y002320D01*
X001819Y002311D01*
X001762Y002306D01*
X001706Y002305D01*
X001649Y002308D01*
X001593Y002315D01*
X001538Y002326D01*
X001484Y002341D01*
X001430Y002359D01*
X001378Y002382D01*
X001328Y002408D01*
X001280Y002437D01*
X001234Y002470D01*
X001190Y002505D01*
X001149Y002544D01*
X001111Y002586D01*
X001076Y002630D01*
X001044Y002677D01*
X001016Y002726D01*
X000991Y002776D01*
X000969Y002828D01*
X000952Y002882D01*
X000938Y002937D01*
X000928Y002992D01*
X000922Y003049D01*
X000920Y003105D01*
X001320Y003655D02*
X001520Y003655D01*
X001420Y003555D02*
X001420Y003755D01*
X001470Y004905D02*
X001487Y004907D01*
X001504Y004911D01*
X001520Y004918D01*
X001534Y004928D01*
X001547Y004941D01*
X001557Y004955D01*
X001564Y004971D01*
X001568Y004988D01*
X001570Y005005D01*
X001570Y005105D01*
X001520Y005155D01*
X001520Y006055D01*
X001570Y006105D01*
X001570Y006205D01*
X001568Y006222D01*
X001564Y006239D01*
X001557Y006255D01*
X001547Y006269D01*
X001534Y006282D01*
X001520Y006292D01*
X001504Y006299D01*
X001487Y006303D01*
X001470Y006305D01*
X000970Y006305D02*
X000953Y006303D01*
X000936Y006299D01*
X000920Y006292D01*
X000906Y006282D01*
X000893Y006269D01*
X000883Y006255D01*
X000876Y006239D01*
X000872Y006222D01*
X000870Y006205D01*
X000870Y006105D01*
X000920Y006055D01*
X000920Y005155D01*
X000870Y005105D01*
X000870Y005005D01*
X000872Y004988D01*
X000876Y004971D01*
X000883Y004955D01*
X000893Y004941D01*
X000906Y004928D01*
X000920Y004918D01*
X000936Y004911D01*
X000953Y004907D01*
X000970Y004905D01*
X002220Y007605D02*
X003120Y007605D01*
X003220Y007705D01*
X003320Y007605D01*
X004120Y007605D01*
X004220Y007705D01*
X004320Y007605D01*
X005120Y007605D01*
X005220Y007705D01*
X005320Y007605D01*
X006120Y007605D01*
X006220Y007705D01*
X006320Y007605D01*
X007120Y007605D01*
X007220Y007705D01*
X007320Y007605D01*
X008120Y007605D01*
X008220Y007705D01*
X008320Y007605D01*
X009120Y007605D01*
X009220Y007705D01*
X009320Y007605D01*
X010220Y007605D01*
X010220Y008605D01*
X009320Y008605D01*
X009220Y008705D01*
X009120Y008605D01*
X008320Y008605D01*
X008220Y008705D01*
X008120Y008605D01*
X007320Y008605D01*
X007220Y008705D01*
X007120Y008605D01*
X006320Y008605D01*
X006220Y008705D01*
X006120Y008605D01*
X005320Y008605D01*
X005220Y008705D01*
X005120Y008605D01*
X004320Y008605D01*
X004220Y008705D01*
X004120Y008605D01*
X003320Y008605D01*
X003220Y008705D01*
X003120Y008605D01*
X002220Y008605D01*
X002220Y009605D01*
X003120Y009605D01*
X003220Y009505D01*
X003320Y009605D01*
X004120Y009605D01*
X004220Y009505D01*
X004320Y009605D01*
X005120Y009605D01*
X005220Y009505D01*
X005320Y009605D01*
X006120Y009605D01*
X006220Y009505D01*
X006320Y009605D01*
X007120Y009605D01*
X007220Y009505D01*
X007320Y009605D01*
X008120Y009605D01*
X008220Y009505D01*
X008320Y009605D01*
X009120Y009605D01*
X009220Y009505D01*
X009320Y009605D01*
X010220Y009605D01*
X010220Y008605D01*
X009320Y008605D01*
X009220Y008505D01*
X009120Y008605D01*
X008320Y008605D01*
X008220Y008505D01*
X008120Y008605D01*
X007320Y008605D01*
X007220Y008505D01*
X007120Y008605D01*
X006320Y008605D01*
X006220Y008505D01*
X006120Y008605D01*
X005320Y008605D01*
X005220Y008505D01*
X005120Y008605D01*
X004320Y008605D01*
X004220Y008505D01*
X004120Y008605D01*
X003320Y008605D01*
X003220Y008505D01*
X003120Y008605D01*
X002220Y008605D01*
X002220Y007605D01*
X002220Y009605D02*
X002220Y010605D01*
X003120Y010605D01*
X003220Y010505D01*
X003320Y010605D01*
X004120Y010605D01*
X004220Y010505D01*
X004320Y010605D01*
X005120Y010605D01*
X005220Y010505D01*
X005320Y010605D01*
X006120Y010605D01*
X006220Y010505D01*
X006320Y010605D01*
X007120Y010605D01*
X007220Y010505D01*
X007320Y010605D01*
X008120Y010605D01*
X008220Y010505D01*
X008320Y010605D01*
X009120Y010605D01*
X009220Y010505D01*
X009320Y010605D01*
X010220Y010605D01*
X010220Y009605D01*
X009320Y009605D01*
X009220Y009705D01*
X009120Y009605D01*
X008320Y009605D01*
X008220Y009705D01*
X008120Y009605D01*
X007320Y009605D01*
X007220Y009705D01*
X007120Y009605D01*
X006320Y009605D01*
X006220Y009705D01*
X006120Y009605D01*
X005320Y009605D01*
X005220Y009705D01*
X005120Y009605D01*
X004320Y009605D01*
X004220Y009705D01*
X004120Y009605D01*
X003320Y009605D01*
X003220Y009705D01*
X003120Y009605D01*
X002220Y009605D01*
X002470Y011605D02*
X002970Y011605D01*
X003220Y011855D01*
X003470Y011605D01*
X003970Y011605D01*
X004220Y011855D01*
X004470Y011605D01*
X004970Y011605D01*
X005220Y011855D01*
X005470Y011605D01*
X005970Y011605D01*
X006220Y011855D01*
X006470Y011605D01*
X006970Y011605D01*
X007220Y011855D01*
X007470Y011605D01*
X007970Y011605D01*
X008220Y011855D01*
X008470Y011605D01*
X008970Y011605D01*
X009220Y011855D01*
X009470Y011605D01*
X009970Y011605D01*
X010220Y011855D01*
X010220Y012355D01*
X009970Y012605D01*
X009470Y012605D01*
X009220Y012355D01*
X008970Y012605D01*
X008470Y012605D01*
X008220Y012355D01*
X007970Y012605D01*
X007470Y012605D01*
X007220Y012355D01*
X006970Y012605D01*
X006470Y012605D01*
X006220Y012355D01*
X005970Y012605D01*
X005470Y012605D01*
X005220Y012355D01*
X004970Y012605D01*
X004470Y012605D01*
X004220Y012355D01*
X003970Y012605D01*
X003470Y012605D01*
X003220Y012355D01*
X002970Y012605D01*
X002470Y012605D01*
X002220Y012355D01*
X002220Y011855D01*
X002470Y011605D01*
X008620Y003455D02*
X008720Y003455D01*
X008770Y003405D01*
X009670Y003405D01*
X009720Y003455D01*
X009820Y003455D01*
X009837Y003453D01*
X009854Y003449D01*
X009870Y003442D01*
X009884Y003432D01*
X009897Y003419D01*
X009907Y003405D01*
X009914Y003389D01*
X009918Y003372D01*
X009920Y003355D01*
X009920Y002855D02*
X009918Y002838D01*
X009914Y002821D01*
X009907Y002805D01*
X009897Y002791D01*
X009884Y002778D01*
X009870Y002768D01*
X009854Y002761D01*
X009837Y002757D01*
X009820Y002755D01*
X009720Y002755D01*
X009670Y002805D01*
X008770Y002805D01*
X008720Y002755D01*
X008620Y002755D01*
X008603Y002757D01*
X008586Y002761D01*
X008570Y002768D01*
X008556Y002778D01*
X008543Y002791D01*
X008533Y002805D01*
X008526Y002821D01*
X008522Y002838D01*
X008520Y002855D01*
X008520Y003355D02*
X008522Y003372D01*
X008526Y003389D01*
X008533Y003405D01*
X008543Y003419D01*
X008556Y003432D01*
X008570Y003442D01*
X008586Y003449D01*
X008603Y003453D01*
X008620Y003455D01*
X007970Y001605D02*
X007470Y001605D01*
X007220Y001355D01*
X006970Y001605D01*
X006470Y001605D01*
X006220Y001355D01*
X005970Y001605D01*
X005470Y001605D01*
X005220Y001355D01*
X005220Y000855D01*
X005470Y000605D01*
X005970Y000605D01*
X006220Y000855D01*
X006470Y000605D01*
X006970Y000605D01*
X007220Y000855D01*
X007470Y000605D01*
X007970Y000605D01*
X008220Y000855D01*
X008220Y001355D01*
X007970Y001605D01*
X008720Y005605D02*
X008722Y005668D01*
X008728Y005730D01*
X008738Y005792D01*
X008751Y005854D01*
X008769Y005914D01*
X008790Y005973D01*
X008815Y006031D01*
X008844Y006087D01*
X008876Y006141D01*
X008911Y006193D01*
X008949Y006242D01*
X008991Y006290D01*
X009035Y006334D01*
X009083Y006376D01*
X009132Y006414D01*
X009184Y006449D01*
X009238Y006481D01*
X009294Y006510D01*
X009352Y006535D01*
X009411Y006556D01*
X009471Y006574D01*
X009533Y006587D01*
X009595Y006597D01*
X009657Y006603D01*
X009720Y006605D01*
X009783Y006603D01*
X009845Y006597D01*
X009907Y006587D01*
X009969Y006574D01*
X010029Y006556D01*
X010088Y006535D01*
X010146Y006510D01*
X010202Y006481D01*
X010256Y006449D01*
X010308Y006414D01*
X010357Y006376D01*
X010405Y006334D01*
X010449Y006290D01*
X010491Y006242D01*
X010529Y006193D01*
X010564Y006141D01*
X010596Y006087D01*
X010625Y006031D01*
X010650Y005973D01*
X010671Y005914D01*
X010689Y005854D01*
X010702Y005792D01*
X010712Y005730D01*
X010718Y005668D01*
X010720Y005605D01*
X010718Y005542D01*
X010712Y005480D01*
X010702Y005418D01*
X010689Y005356D01*
X010671Y005296D01*
X010650Y005237D01*
X010625Y005179D01*
X010596Y005123D01*
X010564Y005069D01*
X010529Y005017D01*
X010491Y004968D01*
X010449Y004920D01*
X010405Y004876D01*
X010357Y004834D01*
X010308Y004796D01*
X010256Y004761D01*
X010202Y004729D01*
X010146Y004700D01*
X010088Y004675D01*
X010029Y004654D01*
X009969Y004636D01*
X009907Y004623D01*
X009845Y004613D01*
X009783Y004607D01*
X009720Y004605D01*
X009657Y004607D01*
X009595Y004613D01*
X009533Y004623D01*
X009471Y004636D01*
X009411Y004654D01*
X009352Y004675D01*
X009294Y004700D01*
X009238Y004729D01*
X009184Y004761D01*
X009132Y004796D01*
X009083Y004834D01*
X009035Y004876D01*
X008991Y004920D01*
X008949Y004968D01*
X008911Y005017D01*
X008876Y005069D01*
X008844Y005123D01*
X008815Y005179D01*
X008790Y005237D01*
X008769Y005296D01*
X008751Y005356D01*
X008738Y005418D01*
X008728Y005480D01*
X008722Y005542D01*
X008720Y005605D01*
D12*
X008720Y006355D02*
X008720Y004855D01*
X007511Y003755D02*
X004930Y003755D01*
X004930Y006115D01*
X007510Y006115D02*
X007511Y003755D01*
D13*
X007740Y003625D02*
X007740Y003932D01*
X007817Y003932D01*
X008124Y003625D01*
X008200Y003625D01*
X008450Y003585D02*
X008450Y003935D01*
X008626Y003935D01*
X008684Y003877D01*
X008684Y003760D01*
X008626Y003701D01*
X008450Y003701D01*
X008567Y003701D02*
X008684Y003585D01*
X008810Y003585D02*
X009043Y003585D01*
X008926Y003585D02*
X008926Y003935D01*
X008810Y003818D01*
X008200Y004162D02*
X008124Y004085D01*
X008047Y004085D01*
X007970Y004162D01*
X007970Y004315D01*
X008047Y004392D01*
X008124Y004392D01*
X008200Y004315D01*
X008200Y004162D01*
X007970Y004162D02*
X007894Y004085D01*
X007817Y004085D01*
X007740Y004162D01*
X007740Y004315D01*
X007817Y004392D01*
X007894Y004392D01*
X007970Y004315D01*
X007817Y004545D02*
X007740Y004622D01*
X007740Y004776D01*
X007817Y004852D01*
X008124Y004545D01*
X008200Y004622D01*
X008200Y004776D01*
X008124Y004852D01*
X007817Y004852D01*
X007740Y005006D02*
X007970Y005006D01*
X007894Y005159D01*
X007894Y005236D01*
X007970Y005313D01*
X008124Y005313D01*
X008200Y005236D01*
X008200Y005082D01*
X008124Y005006D01*
X007740Y005006D02*
X007740Y005313D01*
X007740Y005466D02*
X007740Y005696D01*
X007817Y005773D01*
X008124Y005773D01*
X008200Y005696D01*
X008200Y005466D01*
X007740Y005466D01*
X007740Y005926D02*
X007740Y006233D01*
X007740Y006080D02*
X008200Y006080D01*
X008124Y004545D02*
X007817Y004545D01*
X008459Y002565D02*
X008400Y002507D01*
X008459Y002565D02*
X008576Y002565D01*
X008634Y002507D01*
X008634Y002448D01*
X008576Y002390D01*
X008634Y002331D01*
X008634Y002273D01*
X008576Y002215D01*
X008459Y002215D01*
X008400Y002273D01*
X008517Y002390D02*
X008576Y002390D01*
X008760Y002507D02*
X008818Y002565D01*
X008935Y002565D01*
X008993Y002507D01*
X008993Y002448D01*
X008935Y002390D01*
X008993Y002331D01*
X008993Y002273D01*
X008935Y002215D01*
X008818Y002215D01*
X008760Y002273D01*
X008876Y002390D02*
X008935Y002390D01*
X009119Y002273D02*
X009119Y002507D01*
X009177Y002565D01*
X009294Y002565D01*
X009352Y002507D01*
X009119Y002273D01*
X009177Y002215D01*
X009294Y002215D01*
X009352Y002273D01*
X009352Y002507D01*
X004700Y003625D02*
X004700Y003778D01*
X004700Y003701D02*
X004240Y003701D01*
X004240Y003625D02*
X004240Y003778D01*
X004317Y003932D02*
X004624Y003932D01*
X004700Y004008D01*
X004700Y004162D01*
X004624Y004239D01*
X004700Y004392D02*
X004700Y004699D01*
X004700Y004545D02*
X004240Y004545D01*
X004394Y004392D01*
X004317Y004239D02*
X004240Y004162D01*
X004240Y004008D01*
X004317Y003932D01*
X002050Y005697D02*
X001700Y005697D01*
X001700Y005872D01*
X001759Y005930D01*
X001875Y005930D01*
X001934Y005872D01*
X001934Y005697D01*
X001934Y005813D02*
X002050Y005930D01*
X002050Y006056D02*
X001817Y006289D01*
X001759Y006289D01*
X001700Y006231D01*
X001700Y006114D01*
X001759Y006056D01*
X002050Y006056D02*
X002050Y006289D01*
X000680Y006339D02*
X000330Y006339D01*
X000447Y006222D01*
X000330Y006106D01*
X000680Y006106D01*
X000622Y005980D02*
X000505Y005980D01*
X000447Y005922D01*
X000447Y005863D01*
X000505Y005747D01*
X000330Y005747D01*
X000330Y005980D01*
X000622Y005980D02*
X000680Y005922D01*
X000680Y005805D01*
X000622Y005747D01*
X000680Y005621D02*
X000680Y005387D01*
X000680Y005504D02*
X000330Y005504D01*
X000447Y005387D01*
D14*
X006220Y003565D03*
D15*
X008720Y004855D02*
X008763Y004801D01*
X008809Y004749D01*
X008858Y004700D01*
X008910Y004653D01*
X008964Y004610D01*
X009020Y004569D01*
X009079Y004532D01*
X009139Y004498D01*
X009202Y004468D01*
X009265Y004441D01*
X009331Y004417D01*
X009397Y004397D01*
X009465Y004381D01*
X009533Y004369D01*
X009602Y004361D01*
X009671Y004356D01*
X009741Y004355D01*
X009810Y004358D01*
X009879Y004365D01*
X009947Y004376D01*
X010015Y004390D01*
X010082Y004409D01*
X010148Y004431D01*
X010213Y004456D01*
X010276Y004485D01*
X010337Y004518D01*
X010396Y004554D01*
X010453Y004593D01*
X010509Y004635D01*
X010561Y004680D01*
X010611Y004728D01*
X010658Y004779D01*
X010703Y004833D01*
X010744Y004888D01*
X010782Y004946D01*
X010817Y005006D01*
X010849Y005068D01*
X010877Y005131D01*
X010901Y005196D01*
X010922Y005262D01*
X010939Y005330D01*
X010953Y005398D01*
X010962Y005467D01*
X010968Y005536D01*
X010970Y005605D01*
X010968Y005674D01*
X010962Y005743D01*
X010953Y005812D01*
X010939Y005880D01*
X010922Y005948D01*
X010901Y006014D01*
X010877Y006079D01*
X010849Y006142D01*
X010817Y006204D01*
X010782Y006264D01*
X010744Y006322D01*
X010703Y006377D01*
X010658Y006431D01*
X010611Y006482D01*
X010561Y006530D01*
X010509Y006575D01*
X010453Y006617D01*
X010396Y006656D01*
X010337Y006692D01*
X010276Y006725D01*
X010213Y006754D01*
X010148Y006779D01*
X010082Y006801D01*
X010015Y006820D01*
X009947Y006834D01*
X009879Y006845D01*
X009810Y006852D01*
X009741Y006855D01*
X009671Y006854D01*
X009602Y006849D01*
X009533Y006841D01*
X009465Y006829D01*
X009397Y006813D01*
X009331Y006793D01*
X009265Y006769D01*
X009202Y006742D01*
X009139Y006712D01*
X009079Y006678D01*
X009020Y006641D01*
X008964Y006600D01*
X008910Y006557D01*
X008858Y006510D01*
X008809Y006461D01*
X008763Y006409D01*
X008720Y006355D01*
M02*
