%
M48
M72
T01C0.0236
T02C0.0280
T03C0.0320
T04C0.0400
%
T01
X10720Y1105
X1220Y12605
T02
X1370Y3105
X2070Y3105
T03
X1220Y4605
X1220Y6605
X2720Y8105
X2720Y9105
X2720Y10105
X3720Y10105
X3720Y9105
X3720Y8105
X4720Y8105
X4720Y9105
X4720Y10105
X5720Y10105
X5720Y9105
X5720Y8105
X6720Y8105
X6720Y9105
X6720Y10105
X7720Y10105
X7720Y9105
X7720Y8105
X8720Y8105
X8720Y9105
X8720Y10105
X9720Y10105
X9720Y9105
X9720Y8105
X9220Y5605
X10220Y5605
X10220Y3105
X8220Y3105
T04
X7720Y1105
X6720Y1105
X5720Y1105
X5720Y12105
X4720Y12105
X3720Y12105
X2720Y12105
X6720Y12105
X7720Y12105
X8720Y12105
X9720Y12105
M30
