G75*
G70*
%OFA0B0*%
%FSLAX24Y24*%
%IPPOS*%
%LPD*%
%AMOC8*
5,1,8,0,0,1.08239X$1,22.5*
%
%ADD10C,0.0316*%
%ADD11C,0.0680*%
%ADD12OC8,0.0600*%
%ADD13OC8,0.0560*%
%ADD14C,0.0560*%
%ADD15C,0.0600*%
D10*
X010720Y001105D03*
X001220Y012605D03*
D11*
X002720Y012405D02*
X002720Y011805D01*
X003720Y011805D02*
X003720Y012405D01*
X004720Y012405D02*
X004720Y011805D01*
X005720Y011805D02*
X005720Y012405D01*
X006720Y012405D02*
X006720Y011805D01*
X007720Y011805D02*
X007720Y012405D01*
X008720Y012405D02*
X008720Y011805D01*
X009720Y011805D02*
X009720Y012405D01*
X007720Y001405D02*
X007720Y000805D01*
X006720Y000805D02*
X006720Y001405D01*
X005720Y001405D02*
X005720Y000805D01*
D12*
X008220Y003105D03*
X010220Y003105D03*
X010220Y005605D03*
X009220Y005605D03*
X001220Y006605D03*
X001220Y004605D03*
D13*
X002070Y003105D03*
D14*
X001370Y003105D03*
D15*
X002720Y007845D02*
X002720Y008365D01*
X002720Y008845D02*
X002720Y009365D01*
X002720Y009845D02*
X002720Y010365D01*
X003720Y010365D02*
X003720Y009845D01*
X003720Y009365D02*
X003720Y008845D01*
X003720Y008365D02*
X003720Y007845D01*
X004720Y007845D02*
X004720Y008365D01*
X004720Y008845D02*
X004720Y009365D01*
X004720Y009845D02*
X004720Y010365D01*
X005720Y010365D02*
X005720Y009845D01*
X005720Y009365D02*
X005720Y008845D01*
X005720Y008365D02*
X005720Y007845D01*
X006720Y007845D02*
X006720Y008365D01*
X006720Y008845D02*
X006720Y009365D01*
X006720Y009845D02*
X006720Y010365D01*
X007720Y010365D02*
X007720Y009845D01*
X007720Y009365D02*
X007720Y008845D01*
X007720Y008365D02*
X007720Y007845D01*
X008720Y007845D02*
X008720Y008365D01*
X008720Y008845D02*
X008720Y009365D01*
X008720Y009845D02*
X008720Y010365D01*
X009720Y010365D02*
X009720Y009845D01*
X009720Y009365D02*
X009720Y008845D01*
X009720Y008365D02*
X009720Y007845D01*
M02*
